<svg width="512" height="512" viewBox="0 0 512 512" fill="none" xmlns="http://www.w3.org/2000/svg">
<rect width="512" height="512" fill="url(#paint0_linear_1840_11153)"/>
<path d="M184.343 219.815C184.343 211.453 185.976 203.173 189.148 195.449C192.321 187.723 196.97 180.704 202.832 174.792C208.694 168.879 215.653 164.189 223.312 160.989C230.971 157.79 239.18 156.143 247.47 156.143V219.815H184.343Z" fill="white"/>
<path d="M184.343 219.814C184.343 228.176 185.976 236.456 189.148 244.181C192.321 251.906 196.97 258.925 202.832 264.838C208.694 270.75 215.653 275.44 223.312 278.64C230.971 281.84 239.18 283.487 247.47 283.487V219.814H184.343Z" fill="white"/>
<path d="M310.595 219.814C310.595 228.176 308.964 236.456 305.792 244.181C302.619 251.906 297.97 258.925 292.107 264.838C286.245 270.75 279.286 275.44 271.627 278.64C263.968 281.84 255.759 283.487 247.47 283.487V219.814H310.595Z" fill="white"/>
<path d="M349.517 164.808C349.517 191.211 328.296 212.615 302.119 212.615H254.722V164.808C254.722 138.404 275.943 117 302.119 117C328.296 117 349.517 138.404 349.517 164.808Z" fill="white"/>
<path d="M150.766 342.688V352.949H136.802V395.266H123.964V352.949H110V342.688H150.766Z" fill="white"/>
<path d="M184.087 395.266L173.126 375.418H170.048V395.266H157.21V342.688H178.756C182.911 342.688 186.439 343.412 189.342 344.86C192.295 346.308 194.497 348.305 195.949 350.852C197.4 353.348 198.126 356.144 198.126 359.24C198.126 362.735 197.125 365.856 195.123 368.602C193.171 371.349 190.268 373.296 186.414 374.444L198.577 395.266H184.087ZM170.048 366.355H178.006C180.358 366.355 182.11 365.781 183.261 364.633C184.462 363.484 185.063 361.862 185.063 359.764C185.063 357.767 184.462 356.194 183.261 355.046C182.11 353.897 180.358 353.323 178.006 353.323H170.048V366.355Z" fill="white"/>
<path d="M219.023 352.949V363.584H236.216V373.471H219.023V385.005H238.468V395.266H206.185V342.688H238.468V352.949H219.023Z" fill="white"/>
<path d="M293.95 395.266H281.112L259.641 362.835V395.266H246.803V342.688H259.641L281.112 375.268V342.688H293.95V395.266Z" fill="white"/>
<path d="M323.001 342.688C328.557 342.688 333.412 343.786 337.566 345.983C341.721 348.18 344.924 351.276 347.176 355.271C349.478 359.215 350.63 363.784 350.63 368.977C350.63 374.12 349.478 378.689 347.176 382.683C344.924 386.678 341.696 389.774 337.491 391.971C333.337 394.168 328.507 395.266 323.001 395.266H303.256V342.688H323.001ZM322.176 384.181C327.031 384.181 330.809 382.858 333.512 380.212C336.215 377.565 337.566 373.82 337.566 368.977C337.566 364.134 336.215 360.364 333.512 357.667C330.809 354.971 327.031 353.623 322.176 353.623H316.094V384.181H322.176Z" fill="white"/>
<path d="M403 342.688L384.756 377.89V395.266H371.918V377.89L353.675 342.688H368.24L378.45 364.708L388.585 342.688H403Z" fill="white"/>
<defs>
<linearGradient id="paint0_linear_1840_11153" x1="256" y1="0" x2="256" y2="527.75" gradientUnits="userSpaceOnUse">
<stop stop-color="#B3005E"/>
<stop offset="1" stop-color="#110341"/>
</linearGradient>
</defs>
</svg>
