<svg width="64" height="64" viewBox="0 0 64 64" fill="none" xmlns="http://www.w3.org/2000/svg">
<path d="M46 2.00004C42.151 1.99926 38.4307 3.386 35.5213 5.906C32.6119 8.42599 30.7085 11.9103 30.16 15.72C30.1197 16.0052 30.1414 16.2957 30.2237 16.5716C30.306 16.8476 30.4469 17.1025 30.6368 17.319C30.8267 17.5355 31.0611 17.7084 31.324 17.826C31.5869 17.9435 31.872 18.0029 32.16 18C32.6423 18.0055 33.1104 17.8364 33.4779 17.5241C33.8454 17.2117 34.0877 16.7769 34.16 16.3C34.595 13.1387 36.268 10.2796 38.8109 8.35168C41.3539 6.4238 44.5586 5.58509 47.72 6.02004C50.8814 6.455 53.7405 8.12799 55.6684 10.671C57.5962 13.214 58.435 16.4187 58 19.58C57.5449 22.5274 56.0344 25.209 53.7497 27.1258C51.4649 29.0426 48.5616 30.0641 45.58 30H6C5.46957 30 4.96086 30.2108 4.58579 30.5858C4.21071 30.9609 4 31.4696 4 32C4 32.5305 4.21071 33.0392 4.58579 33.4143C4.96086 33.7893 5.46957 34 6 34H45.44C49.5718 34.067 53.5758 32.5679 56.6477 29.8039C59.7196 27.04 61.6318 23.2159 62 19.1C62.1511 16.9082 61.8491 14.7088 61.1129 12.6388C60.3768 10.5688 59.2222 8.67257 57.7211 7.06831C56.22 5.46405 54.4047 4.18611 52.3881 3.31414C50.3715 2.44217 48.197 1.99485 46 2.00004Z" fill="#060047"/>
<path d="M37.58 38H6C5.46957 38 4.96086 38.2107 4.58579 38.5858C4.21071 38.9609 4 39.4696 4 40C4 40.5304 4.21071 41.0391 4.58579 41.4142C4.96086 41.7893 5.46957 42 6 42H37.58C38.7908 41.9994 39.986 42.2736 41.0755 42.8021C42.1649 43.3305 43.1202 44.0994 43.8693 45.0507C44.6184 46.002 45.1418 47.1109 45.4 48.2939C45.6582 49.4769 45.6445 50.7031 45.36 51.88C44.9329 53.6424 43.9198 55.2074 42.4866 56.3184C41.0535 57.4295 39.2854 58.0207 37.4722 57.9951C35.659 57.9696 33.9083 57.3287 32.507 56.1777C31.1058 55.0267 30.1372 53.4337 29.76 51.66C29.679 51.1904 29.4331 50.7652 29.0664 50.4608C28.6997 50.1565 28.2365 49.9931 27.76 50C27.4701 49.9967 27.1829 50.0565 26.9184 50.1752C26.6539 50.2939 26.4184 50.4687 26.2281 50.6875C26.0379 50.9063 25.8975 51.1638 25.8167 51.4422C25.7358 51.7207 25.7165 52.0134 25.76 52.3C26.1957 54.531 27.2561 56.5923 28.8177 58.244C30.3794 59.8958 32.378 61.07 34.581 61.63C36.7841 62.1901 39.1009 62.1128 41.2617 61.4074C43.4226 60.7019 45.3386 59.3972 46.7868 57.6452C48.235 55.8931 49.1558 53.7658 49.442 51.5108C49.7282 49.2557 49.368 46.9658 48.4034 44.9076C47.4388 42.8493 45.9094 41.1073 43.9933 39.8844C42.0771 38.6616 39.8531 38.008 37.58 38Z" fill="#060047"/>
<path d="M17.1802 21.6996H6.16016C5.62972 21.6996 5.12102 21.9103 4.74594 22.2854C4.37087 22.6604 4.16016 23.1692 4.16016 23.6996C4.16016 24.23 4.37087 24.7387 4.74594 25.1138C5.12102 25.4889 5.62972 25.6996 6.16016 25.6996H17.0802C19.3667 25.7372 21.5866 24.9292 23.314 23.4307C25.0414 21.9321 26.1546 19.8485 26.4402 17.5796C26.66 15.3527 26.0424 13.1238 24.7078 11.3276C23.3732 9.53143 21.4173 8.29687 19.2217 7.86474C17.0261 7.43262 14.7483 7.83392 12.8325 8.99037C10.9168 10.1468 9.50058 11.9755 8.86016 14.1196C8.76714 14.4255 8.74881 14.7492 8.80672 15.0637C8.86462 15.3781 8.99707 15.6741 9.19296 15.9268C9.38885 16.1795 9.64247 16.3815 9.93255 16.516C10.2226 16.6505 10.5407 16.7134 10.8602 16.6996C11.317 16.7129 11.7647 16.5693 12.1286 16.2928C12.4925 16.0162 12.7507 15.6233 12.8602 15.1796C13.2356 14.0041 14.0324 13.009 15.0973 12.3857C16.1623 11.7623 17.4201 11.5548 18.6288 11.803C19.8376 12.0512 20.9119 12.7376 21.645 13.7301C22.3781 14.7227 22.7183 15.9513 22.6002 17.1796C22.4264 18.4746 21.7732 19.6574 20.7697 20.4943C19.7662 21.3312 18.4854 21.7613 17.1802 21.6996Z" fill="#060047"/>
</svg>
