<svg width="100" height="89" viewBox="0 0 100 89" fill="none" xmlns="http://www.w3.org/2000/svg">
<path d="M94.0578 10.8135H5.8445C4.31557 10.8135 3.07617 11.9126 3.07617 13.2679V74.4128C3.07617 75.7692 4.31557 76.8683 5.8445 76.8683H94.0578C95.5868 76.8683 96.8262 75.7692 96.8262 74.4128V13.2679C96.8262 11.9126 95.5868 10.8135 94.0578 10.8135ZM91.2901 71.9584H8.61225V15.7228H91.2901V71.9584Z" fill="#060047"/>
<path d="M18.2087 47.8212H39.2195C40.7478 47.8212 41.9872 46.7222 41.9872 45.3668V23.7083C41.9872 22.353 40.7478 21.2539 39.2195 21.2539H18.2087C16.6803 21.2539 15.4409 22.353 15.4409 23.7083V45.3668C15.4409 46.7222 16.6803 47.8212 18.2087 47.8212ZM20.9776 26.1638H36.4517V42.9119H20.9776V26.1638Z" fill="#060047"/>
<path d="M51.6115 66.5875H81.8777C83.4066 66.5875 84.646 65.4879 84.646 64.132V23.7089C84.646 22.3536 83.4066 21.2545 81.8777 21.2545H75.2802V20.1087C75.2802 18.7534 74.0408 17.6543 72.5124 17.6543H60.9773C59.449 17.6543 58.209 18.7534 58.209 20.1087V21.2545H51.6115C50.0831 21.2545 48.8438 22.3536 48.8438 23.7089V64.132C48.8438 65.4879 50.0831 66.5875 51.6115 66.5875ZM63.7457 22.5637H69.7435V27.9733H63.7457V22.5637ZM54.3798 26.1643H58.209V30.4283C58.209 31.7841 59.449 32.8827 60.9773 32.8827H72.5124C74.0408 32.8827 75.2802 31.7841 75.2802 30.4283V26.1643H79.1094V61.6771H54.3798V26.1643Z" fill="#060047"/>
<path d="M21.4411 57.2585H35.9871C37.516 57.2585 38.7554 56.1594 38.7554 54.8031C38.7554 53.4477 37.516 52.3486 35.9871 52.3486H21.4411C19.9127 52.3486 18.6733 53.4477 18.6733 54.8031C18.6733 56.1594 19.9127 57.2585 21.4411 57.2585Z" fill="#060047"/>
<path d="M39.9993 61.6768H18.9885C17.4602 61.6768 16.2202 62.7764 16.2202 64.1317C16.2202 65.4875 17.4602 66.5871 18.9885 66.5871H39.9993C41.5277 66.5871 42.7671 65.4875 42.7671 64.1317C42.7671 62.7764 41.5277 61.6768 39.9993 61.6768Z" fill="#060047"/>
</svg>
