<svg width="100" height="93" viewBox="0 0 100 93" fill="none" xmlns="http://www.w3.org/2000/svg">
<path d="M47.5 10.8867C40.281 10.8867 33.2241 12.9874 27.2217 16.9231C21.2193 20.8588 16.541 26.4528 13.7784 32.9976C11.0158 39.5424 10.293 46.7442 11.7014 53.6922C13.1097 60.6401 16.586 67.0222 21.6906 72.0314C26.7952 77.0406 33.2989 80.452 40.3792 81.834C47.4595 83.216 54.7985 82.5067 61.468 79.7958C68.1375 77.0848 73.838 72.4939 77.8486 66.6037C81.8593 60.7135 84 53.7886 84 46.7045C83.9886 37.2084 80.1394 28.1046 73.2968 21.3899C66.4542 14.6752 57.1769 10.8979 47.5 10.8867ZM47.5 76.0099C41.5935 76.0099 35.8197 74.2912 30.9087 71.071C25.9976 67.8509 22.1699 63.274 19.9096 57.9192C17.6493 52.5643 17.0579 46.672 18.2102 40.9873C19.3625 35.3026 22.2067 30.0808 26.3832 25.9824C30.5597 21.884 35.8809 19.0929 41.6739 17.9621C47.4669 16.8314 53.4715 17.4117 58.9283 19.6298C64.3852 21.8478 69.0493 25.604 72.3307 30.4232C75.6122 35.2425 77.3636 40.9084 77.3636 46.7045C77.354 54.4738 74.2045 61.9223 68.6061 67.4161C63.0077 72.9099 55.4174 76.0004 47.5 76.0099Z" fill="#060047"/>
<path d="M49.4158 49.9589V33.3105C49.4158 32.52 49.0778 31.7619 48.4762 31.203C47.8746 30.6441 47.0587 30.3301 46.2079 30.3301C45.3571 30.3301 44.5412 30.6441 43.9396 31.203C43.338 31.7619 43 32.52 43 33.3105V51.1928C43.0002 51.9832 43.3383 52.7411 43.9399 53.2999L53.5636 62.2411C54.1686 62.784 54.9789 63.0844 55.82 63.0776C56.6611 63.0708 57.4657 62.7574 58.0604 62.2048C58.6552 61.6522 58.9926 60.9047 58.9999 60.1232C59.0072 59.3418 58.6839 58.5889 58.0995 58.0268L49.4158 49.9589Z" fill="black"/>
</svg>
