<svg width="17" height="17" viewBox="0 0 17 17" fill="none" xmlns="http://www.w3.org/2000/svg">
<path d="M12.6664 6.79596C12.6669 6.87151 12.6524 6.94641 12.6238 7.01636C12.5953 7.08631 12.5532 7.14993 12.5 7.20358L9.05529 10.6482C8.94772 10.7552 8.80222 10.8152 8.65054 10.8152C8.49887 10.8152 8.35336 10.7552 8.2458 10.6482L4.80113 7.20358C4.70708 7.09375 4.65793 6.95247 4.66351 6.80798C4.6691 6.66349 4.72899 6.52643 4.83124 6.42418C4.93348 6.32194 5.07055 6.26204 5.21504 6.25646C5.35953 6.25088 5.5008 6.30003 5.61063 6.39408L8.64767 9.43112L11.6847 6.39408C11.7647 6.31346 11.8667 6.25836 11.978 6.23575C12.0893 6.21314 12.2048 6.22403 12.3098 6.26705C12.4149 6.31006 12.5049 6.38327 12.5684 6.47742C12.6318 6.57156 12.666 6.68241 12.6664 6.79596Z" fill="#1A1A1A"/>
</svg>
