<svg width="26" height="26" viewBox="0 0 26 26" fill="none" xmlns="http://www.w3.org/2000/svg">
<rect width="26" height="26" rx="4" fill="#F4F4F4"/>
<path d="M7.3761 16.1235C7.2383 16.1235 7.10077 16.071 6.99554 15.9657C6.78534 15.7555 6.78534 15.4148 6.99554 15.2046L15.4072 6.7929C15.6172 6.5827 15.9582 6.5827 16.1684 6.7929C16.3786 7.0031 16.3786 7.34383 16.1684 7.55403L7.75667 15.9657C7.6517 16.0707 7.5139 16.1235 7.3761 16.1235Z" fill="#1A1A1A" stroke="#1A1A1A" stroke-width="0.2"/>
<path d="M6.54468 20C6.50727 20 6.46932 19.9959 6.43137 19.9879C6.1407 19.9254 5.95553 19.6393 6.01797 19.3487L6.84961 15.4722C6.91205 15.1816 7.1995 14.9969 7.48882 15.0588C7.77949 15.1213 7.96466 15.4074 7.90222 15.698L7.07058 19.5745C7.01648 19.8272 6.79309 20 6.54468 20Z" fill="#1A1A1A" stroke="#1A1A1A" stroke-width="0.2"/>
<path d="M10.42 19.1681C10.2822 19.1681 10.1447 19.1156 10.0395 19.0104C9.82929 18.8002 9.82929 18.4595 10.0395 18.2493L18.4512 9.83782C18.6611 9.62763 19.0021 9.62763 19.2123 9.83782C19.4225 10.048 19.4225 10.3888 19.2123 10.599L10.8009 19.0104C10.6956 19.1156 10.5578 19.1681 10.42 19.1681Z" fill="#1A1A1A" stroke="#1A1A1A" stroke-width="0.2"/>
<path d="M6.54379 20C6.29537 20 6.07226 19.8272 6.01789 19.5745C5.95572 19.2838 6.14062 18.9977 6.43129 18.9353L10.3077 18.1037C10.5987 18.042 10.8848 18.2267 10.9469 18.5171C11.0091 18.8077 10.8242 19.0938 10.5335 19.1563L6.6571 19.9879C6.61915 19.9963 6.5812 20 6.54379 20Z" fill="#1A1A1A" stroke="#1A1A1A" stroke-width="0.2"/>
<path d="M17.3096 12.279C17.1718 12.279 17.034 12.2265 16.929 12.1213L13.8842 9.07649C13.674 8.86629 13.674 8.52556 13.8842 8.31536C14.0941 8.10517 14.4354 8.10517 14.6453 8.31536L17.6901 11.3601C17.9003 11.5703 17.9003 11.9111 17.6901 12.1213C17.5852 12.2265 17.4474 12.279 17.3096 12.279Z" fill="#1A1A1A" stroke="#1A1A1A" stroke-width="0.2"/>
<path d="M18.8335 10.757C18.6957 10.757 18.5579 10.7046 18.4527 10.5993C18.2425 10.3891 18.2425 10.0484 18.4527 9.83793C18.7523 9.53838 18.9172 9.13279 18.9172 8.69624C18.9172 8.2597 18.7523 7.8541 18.4527 7.55455C18.1529 7.25473 17.7473 7.08974 17.3107 7.08974C16.8742 7.08974 16.4686 7.25473 16.169 7.55455C15.9591 7.76475 15.6184 7.76502 15.4076 7.55455C15.1975 7.34435 15.1975 7.00362 15.4076 6.79315C15.9104 6.29013 16.5862 6.01318 17.3107 6.01318C18.035 6.01318 18.7111 6.29013 19.2138 6.79315C19.7169 7.29591 19.9938 7.97172 19.9938 8.69624C19.9938 9.42077 19.7169 10.0966 19.2138 10.5993C19.1091 10.7043 18.9713 10.757 18.8335 10.757Z" fill="#1A1A1A" stroke="#1A1A1A" stroke-width="0.2"/>
</svg>
