<svg width="24" height="25" viewBox="0 0 24 25" fill="none" xmlns="http://www.w3.org/2000/svg">
<path fill-rule="evenodd" clip-rule="evenodd" d="M12.5114 14.5663C10.9846 14.5663 9.74624 13.3286 9.74624 11.8011C9.74624 11.0272 10.0631 10.3295 10.5754 9.82693C10.7656 9.64031 10.7686 9.33483 10.5819 9.1446C10.3953 8.95438 10.0898 8.95145 9.89962 9.13807C9.21011 9.81449 8.78125 10.7573 8.78125 11.8011C8.78125 13.8617 10.4519 15.5312 12.5114 15.5312C13.5542 15.5312 14.498 15.1024 15.1744 14.4129C15.361 14.2227 15.3581 13.9172 15.1679 13.7306C14.9777 13.5439 14.6722 13.5469 14.4856 13.7371C13.983 14.2494 13.2845 14.5663 12.5114 14.5663Z" fill="white"/>
<path fill-rule="evenodd" clip-rule="evenodd" d="M4.86113 15.7958C6.41187 17.7002 8.87407 19.6562 12.4278 19.6562C14.838 19.6562 16.7565 18.7541 18.2279 17.5769C18.4338 17.4122 18.4662 17.1131 18.3003 16.9087C18.1344 16.7044 17.833 16.6723 17.6272 16.8369C16.2908 17.906 14.5783 18.7059 12.4278 18.7059C9.27031 18.7059 7.05482 16.978 5.60568 15.1984C4.88217 14.3099 4.35932 13.4191 4.01741 12.7496C3.84675 12.4154 3.72195 12.1379 3.64038 11.9455C3.62008 11.8976 3.60248 11.855 3.58752 11.8182C3.62404 11.7328 3.67542 11.6166 3.74195 11.4749C3.89472 11.1497 4.12678 10.6915 4.44151 10.166C5.07304 9.11151 6.02699 7.80344 7.32593 6.74933C7.53061 6.58323 7.56089 6.28387 7.39356 6.08069C7.22623 5.87751 6.92466 5.84745 6.71998 6.01355C5.30516 7.16169 4.28386 8.56949 3.61858 9.68033C3.2849 10.2375 3.03816 10.7243 2.87423 11.0734C2.79221 11.248 2.73078 11.3885 2.68943 11.4864C2.66875 11.5353 2.65309 11.5737 2.64237 11.6003C2.63701 11.6137 2.63289 11.6241 2.62999 11.6315L2.62657 11.6402L2.62555 11.6429L2.62521 11.6438L2.62509 11.6441C2.62504 11.6442 2.62499 11.6443 3.07244 11.8132C2.62151 11.9726 2.62158 11.9729 2.62167 11.9731L2.62188 11.9737L2.6225 11.9754L2.62448 11.9808C2.62613 11.9853 2.62843 11.9916 2.63141 11.9995C2.63735 12.0154 2.64595 12.0381 2.65725 12.0672C2.67986 12.1253 2.71331 12.2088 2.75795 12.3141C2.84719 12.5246 2.9814 12.8227 3.16349 13.1793C3.52708 13.8912 4.08471 14.8424 4.86113 15.7958ZM3.07244 11.8132L2.62151 11.9726C2.58333 11.8663 2.58457 11.7499 2.62499 11.6443L3.07244 11.8132Z" fill="white"/>
<path fill-rule="evenodd" clip-rule="evenodd" d="M18.8437 16.099C19.0391 16.272 19.3392 16.2556 19.5141 16.0624C20.4324 15.0478 21.0912 13.9913 21.5202 13.1906C21.7352 12.7895 21.8935 12.4506 21.9987 12.2104C22.0513 12.0902 22.0907 11.9946 22.1172 11.928C22.1305 11.8948 22.1406 11.8687 22.1476 11.8506C22.1511 11.8415 22.1538 11.8343 22.1557 11.8292L22.158 11.8231L22.1587 11.8211L22.1589 11.8205L22.159 11.8202C22.1591 11.8201 22.1591 11.82 21.7128 11.66C22.1566 11.4932 22.1565 11.493 22.1564 11.4928L22.1555 11.4906L22.1535 11.4853C22.1517 11.4808 22.1493 11.4747 22.1462 11.4668C22.1399 11.4511 22.1308 11.4286 22.1189 11.3997C22.0951 11.3421 22.0599 11.2591 22.0131 11.1544C21.9195 10.9451 21.7795 10.6485 21.5911 10.2937C21.2149 9.58521 20.6431 8.63866 19.8603 7.68977C18.2995 5.79764 15.853 3.84375 12.4131 3.84375C10.8616 3.84375 9.50706 4.24313 8.34492 4.85717C8.11365 4.97936 8.02631 5.26388 8.14983 5.49266C8.27336 5.72143 8.56097 5.80784 8.79224 5.68564C9.83116 5.13672 11.0332 4.783 12.4131 4.783C15.4521 4.783 17.6554 6.50241 19.1247 8.28359C19.857 9.17135 20.3953 10.0615 20.7505 10.7304C20.9278 11.0644 21.0587 11.3418 21.1447 11.5342C21.1665 11.5829 21.1854 11.6262 21.2014 11.6635C21.1814 11.7118 21.1568 11.77 21.1274 11.837C21.0308 12.0578 20.8831 12.3742 20.6813 12.7507C20.277 13.5054 19.6596 14.4934 18.8067 15.4359C18.6318 15.6291 18.6484 15.926 18.8437 16.099ZM21.7128 11.66L22.1566 11.4932C22.1969 11.5983 22.1978 11.7143 22.1591 11.82L21.7128 11.66Z" fill="white"/>
<path fill-rule="evenodd" clip-rule="evenodd" d="M15.4279 12.7744C15.6747 12.8191 15.9085 12.6399 15.95 12.3741C15.9819 12.1703 16 11.9594 16 11.742C16 9.65868 14.4318 7.96875 12.4963 7.96875C12.2944 7.96875 12.0986 7.98825 11.9093 8.02255C11.6625 8.06729 11.4961 8.31905 11.5376 8.58487C11.5792 8.85069 11.8129 9.0299 12.0598 8.98516C12.2034 8.95913 12.3488 8.9449 12.4963 8.9449C13.931 8.9449 15.0936 10.1976 15.0936 11.742C15.0936 11.9008 15.0804 12.0574 15.0562 12.2121C15.0146 12.4779 15.1811 12.7297 15.4279 12.7744Z" fill="white"/>
<path fill-rule="evenodd" clip-rule="evenodd" d="M8.78125 11.8011C8.78125 13.8616 10.4509 15.5312 12.5114 15.5312C13.5552 15.5312 14.498 15.1024 15.1744 14.4129C15.361 14.2227 15.3581 13.9172 15.1679 13.7306C14.9777 13.5439 14.6722 13.5469 14.4856 13.7371C13.983 14.2494 13.2853 14.5663 12.5114 14.5663C10.9839 14.5663 9.74624 13.3286 9.74624 11.8011C9.74624 11.028 10.0631 10.3295 10.5754 9.82693C10.7656 9.64031 10.7686 9.33483 10.5819 9.1446C10.3953 8.95438 10.0898 8.95145 9.89962 9.13807C9.21006 9.81454 8.78125 10.7583 8.78125 11.8011Z" fill="white"/>
<path fill-rule="evenodd" clip-rule="evenodd" d="M20.6749 19.8624C20.8584 19.6789 20.8584 19.3814 20.6749 19.1978L5.11465 3.63763C4.93115 3.45412 4.63363 3.45412 4.45013 3.63763C4.26662 3.82113 4.26662 4.11865 4.45013 4.30215L20.0103 19.8624C20.1939 20.0459 20.4914 20.0459 20.6749 19.8624Z" fill="white"/>
</svg>
