<svg width="78" height="78" viewBox="0 0 78 78" fill="none" xmlns="http://www.w3.org/2000/svg">
<g id="fahrenheit-degrees (1) 1">
<g id="Group">
<g id="Group_2">
<path id="Vector" d="M19.0428 10.4355C14.3201 10.4355 10.4658 14.2746 10.4658 18.9973C10.4658 23.7199 14.3049 27.5742 19.0428 27.5742C23.7807 27.5742 27.6045 23.7352 27.6045 18.9973C27.6045 14.2594 23.7654 10.4355 19.0428 10.4355ZM19.0428 21.8613C17.4736 21.8613 16.1787 20.5816 16.1787 18.9973C16.1787 17.4281 17.4584 16.1332 19.0428 16.1332C20.6119 16.1332 21.8916 17.4129 21.8916 18.9973C21.8916 20.5816 20.6119 21.8613 19.0428 21.8613Z" fill="white"/>
</g>
<g id="Group_3">
<path id="Vector_2" d="M67.5338 18.9824V13.2695H33.3174V67.5648H39.0303V41.8797H59.0178V36.1668H39.0303V18.9824H67.5338Z" fill="white"/>
</g>
</g>
</g>
</svg>
