<svg width="137" height="101" viewBox="0 0 137 101" fill="none" xmlns="http://www.w3.org/2000/svg">
<g clip-path="url(#clip0_202_9207)">
<path d="M84.8271 30.1309L65.1396 24.5059L59.5146 4.81836H20.1396C15.4797 4.81836 11.7021 8.59592 11.7021 13.2559V92.3809C11.7021 97.0408 15.4797 100.818 20.1396 100.818H76.3896C81.0496 100.818 84.8271 97.0408 84.8271 92.3809V30.1309Z" fill="#FABE2C"/>
<path d="M59.5146 4.81836H48.2646V100.818H76.3896C81.0496 100.818 84.8271 97.0408 84.8271 92.3809V30.1309L65.1396 24.5059L59.5146 4.81836Z" fill="#FF9F00"/>
<path d="M84.8271 30.1309H65.1396C62.0459 30.1309 59.5146 27.5996 59.5146 24.5059V4.81836C60.2459 4.81836 60.9771 5.09961 61.4832 5.6623L83.9832 28.1623C84.5459 28.6684 84.8271 29.3996 84.8271 30.1309Z" fill="#FDD929"/>
<path d="M65.1396 80.9434H31.3896C29.8351 80.9434 28.5771 79.6854 28.5771 78.1309V50.0059C28.5771 48.4513 29.8351 47.1934 31.3896 47.1934H65.1396C66.6942 47.1934 67.9521 48.4513 67.9521 50.0059V78.1309C67.9521 79.6854 66.6942 80.9434 65.1396 80.9434ZM34.2021 72.5059H62.3271V55.6309H34.2021V72.5059Z" fill="#FFF5F5"/>
<path d="M65.1396 47.1934H48.2646V55.6309H62.3271V72.5059H48.2646V80.9434H65.1396C66.6942 80.9434 67.9521 79.6854 67.9521 78.1309V50.0059C67.9521 48.4513 66.6942 47.1934 65.1396 47.1934Z" fill="#E3E7EA"/>
</g>
<g clip-path="url(#clip1_202_9207)">
<path d="M106.265 4.31836L96.2646 14.3184L101.265 17.4134L106.265 14.3184L109.088 9.31836L106.265 4.31836Z" fill="#FF2820"/>
<path d="M106.265 14.3184H96.2646V27.3184L101.265 30.0641L106.265 27.3184V14.3184Z" fill="#0084FF"/>
<path d="M96.2646 27.3184V33.985C96.2646 35.8184 97.7646 37.3184 99.598 37.3184H106.265L109.088 32.0104L106.265 27.3184H96.2646Z" fill="#0066DD"/>
<path d="M134.199 7.86883L128.015 12.7681V12.8184L125.998 20.5191L128.015 28.3123L134.172 33.2679C134.998 33.9611 136.265 33.3788 136.265 32.2974V8.8393C136.265 7.75789 135.026 7.17563 134.199 7.86883Z" fill="#00AD3C"/>
<path d="M128.015 12.7681V7.61344C128.015 5.80117 126.547 4.31836 124.752 4.31836H118.227H106.265V14.3184H118.515V20.8184L125.096 20.0852L128.015 12.7681Z" fill="#FFBA00"/>
<path d="M118.515 27.3184H106.265V37.3184H118.227H124.752C126.547 37.3184 128.015 35.8377 128.015 34.028V28.3184L124.75 21.6105L118.515 20.8184V27.3184Z" fill="#00AD3C"/>
<path d="M118.515 20.8188L128.015 28.3188V12.7686L118.515 20.8188Z" fill="#00831E"/>
</g>
<g clip-path="url(#clip2_202_9207)">
<path d="M130.718 71.7949V98.2012C130.718 99.623 129.569 100.771 128.147 100.771H104.382C102.96 100.771 101.812 99.623 101.812 98.2012V63.4355C101.812 62.0137 102.96 60.8652 104.382 60.8652H119.788L130.718 71.7949Z" fill="#23A566"/>
<path d="M122.585 80.7324H109.944C109.491 80.7324 109.124 81.0996 109.124 81.5527V92.5605C109.124 93.0137 109.491 93.3809 109.944 93.3809H122.593C123.046 93.3809 123.413 93.0137 123.413 92.5605V81.5605C123.405 81.1074 123.038 80.7324 122.585 80.7324ZM110.765 86.0137H115.444V88.0996H110.765V86.0137ZM117.085 86.0137H121.765V88.0996H117.085V86.0137ZM121.765 84.373H117.085V82.3809H121.765V84.373ZM115.444 82.3809V84.373H110.765V82.3809H115.444ZM110.765 89.748H115.444V91.7402H110.765V89.748ZM117.085 91.7402V89.748H121.765V91.7402H117.085Z" fill="white"/>
<path opacity="0.19" d="M121.257 71.3965L130.718 79.0605V71.8652L125.351 68.748L121.257 71.3965Z" fill="black"/>
<path d="M130.718 71.7949H122.358C120.937 71.7949 119.788 70.6465 119.788 69.2246V60.8652L130.718 71.7949Z" fill="#8ED1B1"/>
</g>
<defs>
<clipPath id="clip0_202_9207">
<rect width="96" height="96" fill="white" transform="translate(0.264648 4.81836)"/>
</clipPath>
<clipPath id="clip1_202_9207">
<rect width="40" height="40" fill="white" transform="translate(96.2646 0.818359)"/>
</clipPath>
<clipPath id="clip2_202_9207">
<rect width="40" height="40" fill="white" transform="translate(96.2646 60.8184)"/>
</clipPath>
</defs>
</svg>
