<svg width="124" height="48" viewBox="0 0 124 48" fill="none" xmlns="http://www.w3.org/2000/svg">
<path d="M67.0603 21.768V23.96H64.0843V33H61.3483V23.96H58.3723V21.768H67.0603ZM74.1614 33L71.8254 28.76H71.1694V33H68.4334V21.768H73.0254C73.9107 21.768 74.6627 21.9227 75.2814 22.232C75.9107 22.5413 76.3801 22.968 76.6894 23.512C76.9987 24.0453 77.1534 24.6427 77.1534 25.304C77.1534 26.0507 76.9401 26.7173 76.5134 27.304C76.0974 27.8907 75.4787 28.3067 74.6574 28.552L77.2494 33H74.1614ZM71.1694 26.824H72.8654C73.3667 26.824 73.7401 26.7013 73.9854 26.456C74.2414 26.2107 74.3694 25.864 74.3694 25.416C74.3694 24.9893 74.2414 24.6533 73.9854 24.408C73.7401 24.1627 73.3667 24.04 72.8654 24.04H71.1694V26.824ZM81.6069 23.96V26.232H85.2709V28.344H81.6069V30.808H85.7509V33H78.8709V21.768H85.7509V23.96H81.6069ZM97.5752 33H94.8392L90.2632 26.072V33H87.5272V21.768H90.2632L94.8392 28.728V21.768H97.5752V33ZM103.766 21.768C104.95 21.768 105.985 22.0027 106.87 22.472C107.756 22.9413 108.438 23.6027 108.918 24.456C109.409 25.2987 109.654 26.2747 109.654 27.384C109.654 28.4827 109.409 29.4587 108.918 30.312C108.438 31.1653 107.75 31.8267 106.854 32.296C105.969 32.7653 104.94 33 103.766 33H99.5584V21.768H103.766ZM103.59 30.632C104.625 30.632 105.43 30.3493 106.006 29.784C106.582 29.2187 106.87 28.4187 106.87 27.384C106.87 26.3493 106.582 25.544 106.006 24.968C105.43 24.392 104.625 24.104 103.59 24.104H102.294V30.632H103.59ZM120.815 21.768L116.927 29.288V33H114.191V29.288L110.303 21.768H113.407L115.583 26.472L117.743 21.768H120.815Z" fill="white"/>
<path d="M2.05493 29.29C2.05493 27.03 2.51587 24.792 3.41147 22.7041C4.30709 20.616 5.61975 18.7188 7.27461 17.1207C8.92946 15.5226 10.894 14.2549 13.0561 13.39C15.2183 12.5252 17.5357 12.08 19.876 12.08V29.29H2.05493Z" fill="white"/>
<path d="M2.05493 29.2899C2.05493 31.55 2.51587 33.7879 3.41147 35.876C4.30709 37.964 5.61975 39.8612 7.27461 41.4593C8.92946 43.0574 10.894 44.3251 13.0561 45.19C15.2183 46.0549 17.5357 46.5 19.876 46.5V29.2899H2.05493Z" fill="white"/>
<path d="M37.6968 29.2899C37.6968 31.55 37.2362 33.7879 36.3407 35.876C35.4451 37.964 34.1325 39.8612 32.4773 41.4593C30.8225 43.0574 28.8579 44.3251 26.6957 45.19C24.5337 46.0549 22.2162 46.5 19.876 46.5V29.2899H37.6968Z" fill="white"/>
<path d="M48.6849 14.422C48.6849 21.5586 42.6939 27.344 35.304 27.344H21.9233V14.422C21.9233 7.2854 27.9141 1.5 35.304 1.5C42.6939 1.5 48.6849 7.2854 48.6849 14.422Z" fill="white"/>
</svg>
