<svg width="30" height="31" viewBox="0 0 30 31" fill="none" xmlns="http://www.w3.org/2000/svg">
<path d="M16.75 15.5C16.75 14.5335 15.9665 13.75 15 13.75C14.0335 13.75 13.25 14.5335 13.25 15.5C13.25 16.4665 14.0335 17.25 15 17.25C15.9665 17.25 16.75 16.4665 16.75 15.5Z" fill="#060047"/>
<path d="M22 15.5C22 14.5335 21.2165 13.75 20.25 13.75C19.2835 13.75 18.5 14.5335 18.5 15.5C18.5 16.4665 19.2835 17.25 20.25 17.25C21.2165 17.25 22 16.4665 22 15.5Z" fill="#060047"/>
<path d="M11.5 15.5C11.5 14.5335 10.7165 13.75 9.75 13.75C8.7835 13.75 8 14.5335 8 15.5C8 16.4665 8.7835 17.25 9.75 17.25C10.7165 17.25 11.5 16.4665 11.5 15.5Z" fill="#060047"/>
</svg>
