<svg width="24" height="24" viewBox="0 0 24 24" fill="none" xmlns="http://www.w3.org/2000/svg">
<g id="push-pin 1">
<rect width="24" height="24" rx="12" fill="#FFEC40" fill-opacity="0.3"/>
<path id="Vector" d="M16.7216 11.938C16.5519 12.1681 16.302 12.326 16.0215 12.3802C15.7409 12.4345 15.4503 12.3812 15.2072 12.231C15.0736 12.1425 15.0736 12.1445 14.9263 12.2939C14.2055 13.0253 14.0071 13.222 13.406 13.8177L13.1369 14.0871C13.0943 14.1264 13.087 14.125 13.1193 14.1697C13.8853 15.3239 13.3982 16.6177 12.6852 17.4435C12.3228 17.8335 11.9464 17.8398 11.5656 17.4888C10.9034 16.8238 10.4149 16.3497 9.69569 15.609C9.62708 15.5492 9.65657 15.5381 9.56409 15.609C8.99841 16.0731 8.43141 16.5345 7.86311 16.9933C7.52134 17.2705 7.17826 17.5484 6.83388 17.827C6.72804 17.929 6.5896 17.9903 6.44301 18C6.38578 17.9989 6.32936 17.9863 6.27707 17.963C6.22478 17.9397 6.17768 17.9061 6.13856 17.8643C5.86357 17.5949 6.06785 17.3138 6.15623 17.1938C6.86282 16.2246 7.55183 15.2591 8.27362 14.2916C8.32589 14.2186 8.31739 14.2368 8.25398 14.1697C7.60213 13.5228 7.15005 13.0691 6.56478 12.4807C6.1502 12.0692 6.17402 11.6535 6.61585 11.2695C7.44474 10.5459 8.86484 10.1684 9.85872 10.8939C9.86657 10.8998 9.87247 10.9037 9.87836 10.9077C10.7344 10.0418 11.1003 9.67603 11.8484 8.93354C11.6687 8.68647 11.5883 8.38074 11.6234 8.0771C11.6585 7.77347 11.8065 7.49418 12.0379 7.29474C12.2693 7.09531 12.5672 6.99034 12.8723 7.0007C13.1775 7.01106 13.4676 7.136 13.6849 7.35067C14.9145 8.56977 15.4409 9.09869 16.6567 10.3257C16.8651 10.5387 16.9871 10.8215 16.999 11.1193C17.011 11.4172 16.9121 11.7089 16.7216 11.938Z" fill="#FFEC40"/>
</g>
</svg>
