<svg width="104" height="105" viewBox="0 0 104 105" fill="none" xmlns="http://www.w3.org/2000/svg">
<g clip-path="url(#clip0_226_10610)">
<path d="M41.9762 12.6914H12.1904V42.4774H41.9764L41.9762 12.6914ZM35.883 36.3842H18.2837V18.7846H35.8832L35.883 36.3842Z" fill="#060047"/>
<path d="M24.0361 24.5381H30.1294V30.6317H24.0361V24.5381Z" fill="#060047"/>
<path d="M12.1904 92.3085H41.9764V62.5225H12.1904V92.3085ZM18.2837 68.6157H35.8832V86.2152H18.2837V68.6157Z" fill="#060047"/>
<path d="M91.8123 65.5684H85.719V86.2145H79.7529V81.6817H73.6597V86.2145H66.2217V92.3077H91.8123V65.5684Z" fill="#060047"/>
<path d="M24.0361 74.3682H30.1294V80.4618H24.0361V74.3682Z" fill="#060047"/>
<path d="M91.8124 12.6914H62.0264V42.4774H91.8124V12.6914ZM85.7191 36.3842H68.1196V18.7846H85.7191V36.3842Z" fill="#060047"/>
<path d="M73.873 24.5381H79.9663V30.6317H73.873V24.5381Z" fill="#060047"/>
<path d="M24.377 49.4531H41.9761V55.5464H24.377V49.4531Z" fill="#060047"/>
<path d="M12.1904 49.4531H18.2841V55.5464H12.1904V49.4531Z" fill="#060047"/>
<path d="M48.0703 49.4531H70.7473V55.5464H48.0703V49.4531Z" fill="#060047"/>
<path d="M91.8127 59.4751V49.4531H76.8408V55.5464H85.7195V59.4751H91.8127Z" fill="#060047"/>
<path d="M48.957 24.8789H55.0503V42.478H48.957V24.8789Z" fill="#060047"/>
<path d="M48.957 12.6914H55.0503V18.785H48.957V12.6914Z" fill="#060047"/>
<path d="M55.0503 80.1204H59.583V74.0271H55.0503V62.5215H48.957V92.3077H60.1284V86.2144H55.0503V80.1204Z" fill="#060047"/>
<path d="M67.5663 73.1485H73.6596V68.6157H78.6038V62.5225H62.6221V68.6157H67.5663V73.1485Z" fill="#060047"/>
<path d="M82.666 0.50293V6.59617H97.9064V21.8305H104V0.50293H82.666Z" fill="#060047"/>
<path d="M6.09324 6.59617H21.3336V0.50293H0V21.8305H6.09324V6.59617Z" fill="#060047"/>
<path d="M97.9064 98.4023H82.666V104.496H104V83.168H97.9064V98.4023Z" fill="#060047"/>
<path d="M6.09324 83.168H0V104.496H21.3336V98.4023H6.09324V83.168Z" fill="#060047"/>
</g>
<defs>
<clipPath id="clip0_226_10610">
<rect width="104" height="104" fill="white" transform="translate(0 0.5)"/>
</clipPath>
</defs>
</svg>
