<svg width="40" height="40" viewBox="0 0 40 40" fill="none" xmlns="http://www.w3.org/2000/svg">
<path d="M27.4265 15.0653C27.029 13.4763 26.112 12.0657 24.8212 11.0574C23.5303 10.0491 21.9397 9.50095 20.3017 9.5C18.6637 9.49905 17.0724 10.0453 15.7804 11.0521C14.4884 12.0589 13.5698 13.4685 13.1704 15.057C11.2867 15.2338 9.54337 16.1295 8.30269 17.558C7.06202 18.9865 6.41933 20.8381 6.50811 22.7281C6.5969 24.618 7.41034 26.4012 8.77947 27.7071C10.1486 29.013 11.9682 29.7413 13.8603 29.7407H16.6195C16.8634 29.7407 17.0974 29.6438 17.2698 29.4713C17.4423 29.2989 17.5392 29.0649 17.5392 28.821C17.5392 28.5771 17.4423 28.3431 17.2698 28.1706C17.0974 27.9981 16.8634 27.9012 16.6195 27.9012H13.8603C13.1356 27.9034 12.4175 27.7627 11.7472 27.4873C11.0769 27.212 10.4673 26.8072 9.9534 26.2963C8.91546 25.2644 8.32996 23.8625 8.32569 22.3989C8.32142 20.9353 8.89874 19.5299 9.93063 18.492C10.9625 17.4541 12.3645 16.8686 13.8281 16.8643C14.0641 16.8821 14.2982 16.8115 14.4852 16.6664C14.6721 16.5213 14.7985 16.3119 14.8398 16.0788C15.0271 14.7655 15.6819 13.5638 16.684 12.6945C17.6861 11.8252 18.9682 11.3465 20.2948 11.3465C21.6214 11.3465 22.9035 11.8252 23.9056 12.6945C24.9077 13.5638 25.5625 14.7655 25.7498 16.0788C25.7979 16.3038 25.9226 16.5051 26.1026 16.6483C26.2826 16.7916 26.5067 16.8679 26.7367 16.8643C28.2003 16.8643 29.6039 17.4457 30.6388 18.4806C31.6737 19.5155 32.2551 20.9192 32.2551 22.3828C32.2551 23.8464 31.6737 25.25 30.6388 26.2849C29.6039 27.3198 28.2003 27.9012 26.7367 27.9012H23.9774C23.7335 27.9012 23.4996 27.9981 23.3271 28.1706C23.1546 28.3431 23.0577 28.5771 23.0577 28.821C23.0577 29.0649 23.1546 29.2989 23.3271 29.4713C23.4996 29.6438 23.7335 29.7407 23.9774 29.7407H26.7367C28.6149 29.7211 30.4145 28.9838 31.7667 27.6801C33.1189 26.3764 33.9213 24.6049 34.0095 22.7286C34.0977 20.8524 33.465 19.0134 32.2411 17.5886C31.0171 16.1638 29.2946 15.261 27.4265 15.0653Z" fill="#333333" fill-opacity="0.5"/>
<path d="M24.2466 23.0328C24.4201 23.2003 24.6524 23.293 24.8936 23.2909C25.1347 23.2888 25.3654 23.1921 25.536 23.0216C25.7065 22.8511 25.8032 22.6204 25.8053 22.3792C25.8074 22.1381 25.7147 21.9057 25.5472 21.7323L20.9484 17.1335C20.776 16.9611 20.5421 16.8643 20.2982 16.8643C20.0543 16.8643 19.8204 16.9611 19.6479 17.1335L15.0492 21.7323C14.8817 21.9057 14.789 22.1381 14.7911 22.3792C14.7931 22.6204 14.8899 22.8511 15.0604 23.0216C15.2309 23.1921 15.4616 23.2888 15.7028 23.2909C15.9439 23.293 16.1763 23.2003 16.3497 23.0328L19.3784 20.0041V31.58C19.3784 31.8239 19.4753 32.0578 19.6478 32.2303C19.8203 32.4028 20.0543 32.4997 20.2982 32.4997C20.5421 32.4997 20.7761 32.4028 20.9485 32.2303C21.121 32.0578 21.2179 31.8239 21.2179 31.58V20.0041L24.2466 23.0328Z" fill="#333333" fill-opacity="0.5"/>
</svg>
