<svg width="24" height="24" viewBox="0 0 24 24" fill="none" xmlns="http://www.w3.org/2000/svg">
<path fill-rule="evenodd" clip-rule="evenodd" d="M17.2544 9.69208C17.8624 8.84008 19.0112 7.92408 20.5744 7.16008C20.9816 6.96168 20.7984 6.34728 20.3496 6.40408C17.0632 6.82008 14.9328 8.25928 13.7696 10.3993C13.3487 11.1824 13.0616 12.0304 12.92 12.9081C12.8248 13.4785 12.8 13.9065 12.8 14.4009C12.8 15.4617 13.2214 16.4792 13.9716 17.2293C14.7217 17.9795 15.7391 18.4009 16.8 18.4009C17.8609 18.4009 18.8783 17.9795 19.6284 17.2293C20.3786 16.4792 20.8 15.4617 20.8 14.4009C20.8 12.1921 18.98 10.3993 16.8896 10.3993C17 10.0969 17.0256 10.0113 17.2544 9.69208ZM8.4544 9.69208C9.0624 8.84008 10.2112 7.92408 11.7744 7.16008C12.1816 6.96168 11.9984 6.34728 11.5496 6.40408C8.2632 6.82008 6.1328 8.25928 4.9696 10.3993C4.54872 11.1824 4.26157 12.0304 4.12 12.9081C4.0248 13.4785 4 13.9065 4 14.4009C4 14.9262 4.10346 15.4463 4.30448 15.9316C4.5055 16.4169 4.80014 16.8579 5.17157 17.2293C5.54301 17.6007 5.98396 17.8954 6.46927 18.0964C6.95457 18.2974 7.47471 18.4009 8 18.4009C8.52529 18.4009 9.04543 18.2974 9.53073 18.0964C10.016 17.8954 10.457 17.6007 10.8284 17.2293C11.1999 16.8579 11.4945 16.4169 11.6955 15.9316C11.8965 15.4463 12 14.9262 12 14.4009C12 12.1921 10.18 10.3993 8.0896 10.3993C8.2 10.0969 8.2256 10.0113 8.4544 9.69208Z" fill="white" fill-opacity="0.5"/>
</svg>
