<svg width="100" height="101" viewBox="0 0 100 101" fill="none" xmlns="http://www.w3.org/2000/svg">
<path d="M20.6182 60.1743C18.5659 65.3531 15.3219 70.48 10.9777 75.4147C9.59527 76.9849 9.41977 79.2264 10.5413 80.9918C11.405 82.3499 12.8576 83.1235 14.3957 83.1235C14.829 83.1235 15.27 83.0625 15.7049 82.9358C24.9121 80.2457 46.3888 70.6906 46.9656 40.1486C47.1884 28.3551 38.5626 18.2233 27.3306 17.0819C21.1401 16.4624 14.9465 18.4735 10.3567 22.6224C5.76074 26.7758 3.12402 32.7054 3.12402 38.8928C3.12402 49.2154 10.4513 58.2425 20.6182 60.1743ZM14.5467 27.2595C17.4657 24.6213 21.1401 23.2159 25.0357 23.2159C25.5865 23.2159 26.1419 23.2434 26.6989 23.3014C34.7204 24.1146 40.8773 31.4633 40.7156 40.0296C40.3173 61.163 28.8748 70.6769 19.3991 74.9326C22.3974 70.8768 24.7534 66.705 26.4288 62.4768C27.0818 60.8304 26.9735 58.9902 26.1327 57.4277C25.2523 55.7889 23.6822 54.6262 21.8282 54.237C14.6108 52.728 9.37402 46.2735 9.37402 38.8928C9.37402 34.4708 11.26 30.2304 14.5467 27.2595Z" fill="#060047"/>
<path d="M60.4491 80.9919C61.3127 82.35 62.7653 83.1236 64.3034 83.1236C64.7368 83.1236 65.1762 83.0625 65.6126 82.9359C74.8198 80.2458 96.295 70.6907 96.8718 40.1487C97.0915 28.3552 88.4673 18.2234 77.2337 17.082C71.0356 16.4518 64.8528 18.4721 60.2629 22.6225C55.667 26.7759 53.0303 32.7055 53.0303 38.8929C53.0303 49.2155 60.3576 58.2426 70.523 60.1744C68.4691 65.3578 65.2251 70.4847 60.8825 75.4164C59.5 76.988 59.326 79.228 60.4491 80.9919ZM76.3334 62.48C76.9865 60.8335 76.8797 58.9933 76.0405 57.4308C75.1585 55.7905 73.5899 54.6278 71.7344 54.2372C64.517 52.7281 59.2802 46.2736 59.2802 38.8929C59.2802 34.4694 61.1662 30.2305 64.4529 27.2596C67.3704 24.6214 71.0447 23.216 74.9418 23.216C75.4911 23.216 76.0466 23.2435 76.6051 23.3015C84.6251 24.1147 90.7835 31.4634 90.6218 40.0297C90.2251 61.1646 78.781 70.677 69.3052 74.9326C72.3021 70.8799 74.655 66.7082 76.3334 62.48Z" fill="#060047"/>
</svg>
