<svg width="2000" height="1811" viewBox="0 0 2000 1811" fill="none" xmlns="http://www.w3.org/2000/svg">
<g clip-path="url(#clip0_2091_9963)">
<mask id="mask0_2091_9963" style="mask-type:luminance" maskUnits="userSpaceOnUse" x="0" y="0" width="2000" height="1811">
<path d="M2000 0H0V1811H2000V0Z" fill="white"/>
</mask>
<g mask="url(#mask0_2091_9963)">
<path d="M1919.79 2324.45H80.2083C35.7927 2324.45 0 2301.05 0 2272.02V0H2000V2272.02C2000 2301.05 1963.94 2324.45 1919.79 2324.45Z" fill="url(#paint0_linear_2091_9963)"/>
<path d="M2000 1339.38H0V1809.9H2000V1339.38Z" fill="#8EE8E2"/>
<path d="M1511.04 1338.81C1511.04 1338.81 1773.54 1139.27 2000 1266.54V1338.81H1511.04Z" fill="#46CDD0"/>
<path d="M1664.17 1338.77C1664.17 1338.77 1843.23 1174.27 2000 1169.41V1338.77H1664.17Z" fill="#3E84A8"/>
<path d="M1664.17 1338.99H1511.04C1511.04 1338.99 1657.92 1418.47 1826.67 1420.65C1735 1385.44 1664.17 1338.99 1664.17 1338.99Z" fill="#86D7DB"/>
<path d="M2000 1338.99H1664.17C1664.17 1338.99 1735 1385.44 1826.67 1420.65C1880.63 1441.45 1941.88 1458.38 2000 1459.56V1338.99Z" fill="#74C7CF"/>
<path d="M1613.02 1391.39C1562.5 1391.39 1516.88 1393.74 1484.38 1397.6C1516.88 1401.46 1562.5 1403.8 1613.02 1403.8C1638.02 1403.8 1661.87 1403.3 1683.54 1402.13C1670 1398.94 1657.08 1395.42 1644.69 1391.73C1634.38 1391.39 1623.75 1391.39 1613.02 1391.39Z" fill="#D2F4E7"/>
<path d="M1644.58 1391.73C1656.98 1395.42 1669.9 1398.77 1683.44 1402.13C1705.52 1401.12 1725.21 1399.44 1741.67 1397.6C1716.15 1394.58 1682.4 1392.4 1644.58 1391.73Z" fill="#CFEEE4"/>
<path d="M1770.42 1438.35C1750 1438.35 1731.67 1440.69 1718.54 1444.55C1731.67 1448.41 1750 1450.75 1770.42 1450.75C1790.83 1450.75 1809.17 1448.41 1822.29 1444.55C1809.27 1440.69 1790.83 1438.35 1770.42 1438.35Z" fill="#D2F4E7"/>
<path d="M1445 1369.09C1424.58 1369.09 1406.25 1370.1 1393.12 1371.77C1406.25 1373.45 1424.58 1374.46 1445 1374.46C1465.42 1374.46 1483.75 1373.45 1496.87 1371.77C1483.75 1370.1 1465.42 1369.09 1445 1369.09Z" fill="#D2F4E7"/>
<path d="M1630.21 1517.83C1609.79 1517.83 1591.46 1520.18 1578.33 1524.03C1591.46 1527.89 1609.79 1530.24 1630.21 1530.24C1650.63 1530.24 1668.96 1527.89 1682.08 1524.03C1668.96 1520.34 1650.63 1517.83 1630.21 1517.83Z" fill="#D2F4E7"/>
<path d="M1687.08 1471.21C1651.25 1471.21 1618.85 1472.89 1595.73 1475.57C1618.75 1478.26 1651.15 1479.93 1687.08 1479.93C1722.92 1479.93 1755.31 1478.26 1778.44 1475.57C1755.42 1472.89 1723.02 1471.21 1687.08 1471.21Z" fill="#D2F4E7"/>
<path d="M1809.9 1513.47C1774.06 1513.47 1741.67 1515.15 1718.54 1517.83C1741.56 1520.51 1773.96 1522.19 1809.9 1522.19C1845.73 1522.19 1878.13 1520.51 1901.25 1517.83C1878.13 1515.15 1845.73 1513.47 1809.9 1513.47Z" fill="#D2F4E7"/>
<path d="M1511.04 1809.7C1511.04 1809.7 1014.7 1386.13 0 1339.17V1809.7H1511.04Z" fill="url(#paint1_linear_2091_9963)"/>
<path d="M141.25 1239.9L103.646 1017.89C103.177 1015.11 102.153 1012.66 100.732 1010.91C99.3101 1009.16 97.5704 1008.21 95.7809 1008.21C93.9915 1008.21 92.2518 1009.16 90.8305 1010.91C89.4091 1012.66 88.385 1015.11 87.9164 1017.89L50.3123 1239.9C49.0516 1247.38 48.8778 1255.21 49.8047 1262.81C50.7315 1270.41 52.7339 1277.56 55.6562 1283.7C58.5785 1289.85 62.342 1294.83 66.6543 1298.26C70.9666 1301.68 75.7117 1303.46 80.5206 1303.46H87.3956V1395.52H104.271V1303.46H111.146C115.952 1303.47 120.696 1301.69 125.006 1298.27C129.315 1294.84 133.074 1289.85 135.989 1283.7C138.904 1277.55 140.895 1270.39 141.808 1262.8C142.72 1255.2 142.529 1247.36 141.25 1239.9Z" fill="url(#paint2_linear_2091_9963)"/>
<path d="M439.471 1271.76L408.221 1087.31C407.838 1085 406.992 1082.96 405.815 1081.51C404.638 1080.05 403.195 1079.26 401.71 1079.26C400.226 1079.26 398.783 1080.05 397.606 1081.51C396.429 1082.96 395.583 1085 395.2 1087.31L363.95 1271.76C362.898 1277.97 362.75 1284.49 363.518 1290.81C364.287 1297.12 365.95 1303.07 368.38 1308.18C370.809 1313.29 373.939 1317.43 377.525 1320.28C381.111 1323.12 385.056 1324.6 389.054 1324.59H394.783V1401.05H408.846V1324.59H414.575C418.558 1324.55 422.482 1323.05 426.045 1320.18C429.608 1317.32 432.713 1313.17 435.121 1308.07C437.528 1302.96 439.172 1297.03 439.927 1290.73C440.681 1284.44 440.525 1277.95 439.471 1271.76Z" fill="url(#paint3_linear_2091_9963)"/>
<path d="M1467.29 1809.79C1467.29 1809.79 1630.73 1614.27 2000 1550.55V1809.79H1467.29Z" fill="url(#paint4_linear_2091_9963)"/>
<path d="M1961.35 1438.87L1912.81 1152.3C1910 1135.7 1895.31 1135.7 1892.5 1152.3L1843.96 1438.87C1842.32 1448.52 1842.09 1458.64 1843.27 1468.46C1844.46 1478.27 1847.04 1487.52 1850.81 1495.47C1854.58 1503.42 1859.44 1509.86 1865.01 1514.29C1870.58 1518.73 1876.7 1521.04 1882.92 1521.04H1891.77V1639.92H1913.54V1521.04H1922.4C1928.6 1521 1934.72 1518.66 1940.27 1514.22C1945.83 1509.77 1950.67 1503.33 1954.44 1495.39C1958.2 1487.45 1960.78 1478.23 1961.98 1468.43C1963.18 1458.63 1962.97 1448.51 1961.35 1438.87Z" fill="url(#paint5_linear_2091_9963)"/>
</g>
<path opacity="0.5" d="M2000 0H0V1811H2000V0Z" fill="#002E46"/>
</g>
<defs>
<linearGradient id="paint0_linear_2091_9963" x1="1000" y1="1343.53" x2="1000" y2="6.97341" gradientUnits="userSpaceOnUse">
<stop stop-color="#B5F7E5"/>
<stop offset="0.218" stop-color="#87E5DB"/>
<stop offset="0.413" stop-color="#63D6D3"/>
<stop offset="0.558" stop-color="#56B9C4"/>
<stop offset="0.735" stop-color="#499CB5"/>
<stop offset="0.888" stop-color="#418AAB"/>
<stop offset="1" stop-color="#3E84A8"/>
</linearGradient>
<linearGradient id="paint1_linear_2091_9963" x1="755.521" y1="1790.88" x2="755.521" y2="1451.63" gradientUnits="userSpaceOnUse">
<stop stop-color="#516891"/>
<stop offset="1" stop-color="#46557C"/>
</linearGradient>
<linearGradient id="paint2_linear_2091_9963" x1="95.8897" y1="1071.34" x2="95.8897" y2="1221.23" gradientUnits="userSpaceOnUse">
<stop stop-color="#516891"/>
<stop offset="1" stop-color="#46557C"/>
</linearGradient>
<linearGradient id="paint3_linear_2091_9963" x1="401.715" y1="1119.49" x2="401.715" y2="1273.3" gradientUnits="userSpaceOnUse">
<stop stop-color="#516891"/>
<stop offset="1" stop-color="#46557C"/>
</linearGradient>
<linearGradient id="paint4_linear_2091_9963" x1="1733.65" y1="1824.83" x2="1733.65" y2="1610.17" gradientUnits="userSpaceOnUse">
<stop stop-color="#52527F"/>
<stop offset="1" stop-color="#48466D"/>
</linearGradient>
<linearGradient id="paint5_linear_2091_9963" x1="1902.64" y1="1170.85" x2="1902.64" y2="1431.89" gradientUnits="userSpaceOnUse">
<stop stop-color="#52527F"/>
<stop offset="1" stop-color="#48466D"/>
</linearGradient>
<clipPath id="clip0_2091_9963">
<rect width="2000" height="1811" fill="white"/>
</clipPath>
</defs>
</svg>
