<svg width="100" height="100" viewBox="0 0 100 100" fill="none" xmlns="http://www.w3.org/2000/svg">
<rect width="100" height="100" fill="#DDD8D8"/>
<g id="Rss feed">
<rect x="-694" y="-264" width="996" height="628" rx="18" fill="white"/>
<g id="Frame 1692">
<g id="Frame 758532041">
<g id="Frame 758532037">
<g id="Frame 758532146">
<g id="Group 626037">
<rect id="Rectangle 1322" x="-179" y="-158" width="457" height="416" fill="#F7D799" fill-opacity="0.13"/>
<g id="rss 1" clip-path="url(#clip0_17_3799)">
<g id="Layer 2">
<g id="27.RSS">
<path id="background" d="M100 50C100 22.3858 77.6142 0 50 0C22.3858 0 0 22.3858 0 50C0 77.6142 22.3858 100 50 100C77.6142 100 100 77.6142 100 50Z" fill="url(#paint0_linear_17_3799)"/>
<g id="icon">
<path id="circle" d="M42.2557 65.8122C42.2546 66.9557 41.9145 68.0733 41.2785 69.0236C40.6425 69.9739 39.7391 70.7144 38.6824 71.1515C37.6258 71.5885 36.4633 71.7026 35.3418 71.4792C34.2203 71.2559 33.1902 70.7051 32.3816 69.8965C31.573 69.088 31.0223 68.0578 30.7989 66.9364C30.5756 65.8149 30.6896 64.6524 31.1267 63.5957C31.5638 62.539 32.3043 61.6356 33.2546 60.9996C34.2049 60.3636 35.3224 60.0236 36.4659 60.0225C37.2267 60.021 37.9802 60.1697 38.6833 60.4601C39.3865 60.7506 40.0253 61.177 40.5632 61.7149C41.1012 62.2528 41.5276 62.8917 41.818 63.5948C42.1084 64.2979 42.2572 65.0515 42.2557 65.8122Z" fill="white"/>
<path id="Vector" d="M59.0455 71.2667H51.4318C51.3433 65.8841 49.1714 60.7455 45.3728 56.931C41.5742 53.1165 36.4447 50.9232 31.0625 50.8121V43.2383C38.4575 43.3486 45.518 46.3384 50.7434 51.5723C55.9688 56.8062 58.9472 63.8715 59.0455 71.2667Z" fill="white"/>
<path id="Vector_2" d="M73.864 71.2671H66.2617C66.1602 61.9584 62.423 53.0583 55.8484 46.4677C49.2737 39.8771 40.3827 36.1184 31.0742 35.9944V28.4092C42.3964 28.5321 53.2191 33.0891 61.2192 41.102C69.2193 49.1148 73.7591 59.9448 73.864 71.2671Z" fill="white"/>
</g>
</g>
</g>
</g>
</g>
</g>
</g>
</g>
</g>
</g>
<defs>
<linearGradient id="paint0_linear_17_3799" x1="14.642" y1="14.642" x2="85.358" y2="85.358" gradientUnits="userSpaceOnUse">
<stop stop-color="#FDC80E"/>
<stop offset="1" stop-color="#EB513B"/>
</linearGradient>
<clipPath id="clip0_17_3799">
<rect width="100" height="100" fill="white"/>
</clipPath>
</defs>
</svg>
