<svg width="100" height="100" viewBox="0 0 100 100" fill="none" xmlns="http://www.w3.org/2000/svg">
<path d="M37.5 18.5001H37.25V18.7501V81.25V81.5H37.5H49.7439V93.5001H12.7501V81.5H25.0002H25.2502V81.25V18.7501V18.5001H25.0002H12.5001H12.2501V18.7501V24.75H0.25V6.5H62.2502V24.75H50.2501V18.7501V18.5001H50.0001H37.5Z" fill="#060047" stroke="#ECF4FF" stroke-width="0.5"/>
<path d="M62.5001 49.7503H62.2501V50.0003V56.0002H50.25V37.75H99.7501V56H87.75V50.0001V49.7501H87.5H81.2501H81.0001V50.0001V81.2502V81.5002H81.2501H87.25V93.5003H62.7501V81.5002H68.75H69V81.2502V50.0003V49.7503H68.75H62.5001Z" fill="#060047" stroke="#ECF4FF" stroke-width="0.5"/>
</svg>
