<svg width="32" height="32" viewBox="0 0 32 32" fill="none" xmlns="http://www.w3.org/2000/svg">
<g id="thermometer 1">
<g id="Layer_2">
<g id="Group">
<path id="Vector" d="M20 28C15.6 28 12 24.4 12 20V12C12 7.6 15.6 4 20 4C24.4 4 28 7.6 28 12C28 12.8 27.4667 13.3333 26.6667 13.3333C25.8667 13.3333 25.3333 12.8 25.3333 12C25.3333 9.06667 22.9333 6.66667 20 6.66667C17.0667 6.66667 14.6667 9.06667 14.6667 12V20C14.6667 22.9333 17.0667 25.3333 20 25.3333C22.9333 25.3333 25.3333 22.9333 25.3333 20C25.3333 19.2 25.8667 18.6667 26.6667 18.6667C27.4667 18.6667 28 19.2 28 20C28 24.4 24.4 28 20 28Z" fill="white"/>
</g>
<g id="Group_2">
<path id="Vector_2" d="M7.33333 10.6667C5.46667 10.6667 4 9.2 4 7.33333C4 5.46667 5.46667 4 7.33333 4C9.2 4 10.6667 5.46667 10.6667 7.33333C10.6667 9.2 9.2 10.6667 7.33333 10.6667ZM7.33333 6.66667C6.93333 6.66667 6.66667 6.93333 6.66667 7.33333C6.66667 7.73333 6.93333 8 7.33333 8C7.73333 8 8 7.73333 8 7.33333C8 6.93333 7.73333 6.66667 7.33333 6.66667Z" fill="white"/>
</g>
</g>
</g>
</svg>
