<svg id="Layer_1" enable-background="new 0 0 64 64" height="512" viewBox="0 0 64 64" width="512" xmlns="http://www.w3.org/2000/svg"><path d="m56 47.6v8.4c0 1.1-.4 2.1-1.2 2.8s-1.7 1.2-2.8 1.2h-40c-.5 0-1-.1-1.5-.3s-.9-.5-1.3-.9-.7-.8-.9-1.3-.3-1-.3-1.5v-8.4c0-.6.5-1.1 1.1-1.1h1.8c.6 0 1.1.5 1.1 1.1v8.4h40v-8.4c0-.6.5-1.1 1.1-1.1h1.8c.6 0 1.1.5 1.1 1.1z"/><path d="m52.5 26.1-1.3 1.3c-.4.4-1.1.4-1.5 0l-2.9-2.9c-.1 0-.1-.1-.2-.2l-12.6-12.6v36.5c0 .6-.5 1.1-1.1 1.1h-1.8c-.6 0-1.1-.5-1.1-1.1v-36.5s-12.6 12.6-12.6 12.6c0 .1-.1.1-.1.2l-2.9 2.9c-.4.4-1.1.4-1.5 0l-1.3-1.3c-.4-.4-.4-1.1 0-1.5l.4-.6 2.4-2.4c.4-.4.8-.8 1.2-1.2l3-3c1.3-1.3 2.6-2.6 3.9-3.9 1.4-1.4 2.7-2.7 4.1-4.1 1.1-1.1 2.3-2.3 3.4-3.4 1.2-1.2 2.6-1.4 4 0 .9.9 1.9 1.9 2.8 2.8 1.4 1.4 2.7 2.7 4.1 4.1s2.7 2.7 4.1 4.1l3.2 3.2 1.4 1.4 2.4 2.4.5.5c.5.5.5 1.2 0 1.6z"/></svg>