<svg width="65" height="64" viewBox="0 0 65 64" fill="none" xmlns="http://www.w3.org/2000/svg">
<g clip-path="url(#clip0_180_18836)">
<path d="M21.3206 42.9445C19.758 41.3845 19.758 38.8485 21.3206 37.2885C22.8833 35.7258 25.414 35.7258 26.9766 37.2885C30.5126 40.8245 36.6833 40.8271 40.2193 37.2885L53.5233 23.9845C57.174 20.3338 57.174 14.3925 53.5233 10.7418C49.8726 7.09115 43.9313 7.09115 40.2806 10.7418C38.718 12.3045 36.1873 12.3045 34.6246 10.7418C33.062 9.18181 33.062 6.64581 34.6246 5.08581C41.3926 -1.68485 52.4113 -1.68485 59.1793 5.08581C65.95 11.8565 65.95 22.8698 59.1793 29.6405L45.8753 42.9445C42.4886 46.3311 38.0433 48.0218 33.598 48.0218C29.1526 48.0218 24.7046 46.3285 21.3206 42.9445ZM17.63 63.9925C22.0753 63.9925 26.5206 62.2991 29.9073 58.9151C31.47 57.3551 31.47 54.8191 29.9073 53.2591C28.3446 51.6965 25.814 51.6965 24.2513 53.2591C20.598 56.9125 14.6566 56.9098 11.0086 53.2591C7.35797 49.6085 7.35797 43.6671 11.0086 40.0165L24.238 26.7871C27.8913 23.1338 33.8326 23.1338 37.4806 26.7871C39.0433 28.3498 41.574 28.3498 43.1366 26.7871C44.6993 25.2271 44.6993 22.6911 43.1366 21.1311C36.366 14.3605 25.3526 14.3605 18.582 21.1311L5.34997 34.3605C-1.42069 41.1311 -1.42069 52.1445 5.34997 58.9151C8.73664 62.3018 13.1846 63.9925 17.63 63.9925Z" fill="#060047"/>
</g>
<defs>
<clipPath id="clip0_180_18836">
<rect width="64" height="64" fill="white" transform="translate(0.264648)"/>
</clipPath>
</defs>
</svg>
