<svg width="58" height="58" viewBox="0 0 58 58" fill="none" xmlns="http://www.w3.org/2000/svg">
<path d="M32.9397 54C28.8567 54 24.9465 53.9833 23.5841 53.9458C22.9973 53.9274 22.4145 53.8428 21.8467 53.6937C20.3918 53.2907 19.0979 52.4459 18.1435 51.276C17.1892 50.1061 16.6215 48.6688 16.5188 47.1625C16.4162 45.6562 16.7836 44.1552 17.5704 42.8666C18.3572 41.578 19.5246 40.5655 20.9114 39.9687C20.5385 38.0853 20.579 36.1433 21.0301 34.2771C21.6621 31.7215 23.0848 29.4308 25.0952 27.7314C27.1057 26.0321 29.6013 25.0109 32.2262 24.8135C34.8512 24.616 37.4714 25.2524 39.7134 26.6319C41.9554 28.0114 43.7047 30.0636 44.7118 32.4958C44.9951 33.175 45.3076 33.2458 45.9347 33.3854L46.3013 33.4729C48.918 34.1861 51.1548 35.8892 52.5384 38.222C53.9221 40.5549 54.3442 43.3345 53.7154 45.9729C53.2787 47.8495 52.3252 49.5662 50.9629 50.9286C49.6006 52.291 47.884 53.2446 46.0076 53.6812C45.2799 53.8471 44.5372 53.9386 43.7911 53.9542C41.9745 53.9792 37.3582 54 32.9397 54ZM33.1272 28.9521C32.7166 28.952 32.3065 28.9819 31.9002 29.0417C30.7793 29.2121 29.7051 29.6099 28.7434 30.2106C27.7818 30.8113 26.9531 31.6022 26.3081 32.5347C25.6632 33.4673 25.2157 34.5218 24.993 35.6336C24.7703 36.7454 24.7771 37.891 25.0132 39C25.2294 39.9601 25.1018 40.9657 24.6525 41.8414C24.2033 42.7171 23.461 43.4073 22.555 43.7917C21.8503 44.0895 21.2799 44.6366 20.9529 45.3283C20.6259 46.02 20.5651 46.808 20.7822 47.5417C20.9248 48.048 21.1951 48.5091 21.5672 48.8809C21.9392 49.2526 22.4006 49.5225 22.9071 49.6646C23.1668 49.7348 23.4339 49.7746 23.7028 49.7833C26.4985 49.8583 40.2538 49.8458 43.7015 49.7833C44.1623 49.774 44.6209 49.7175 45.0701 49.6146C46.1806 49.3488 47.1961 48.7815 48.0047 47.9754C48.8134 47.1693 49.3838 46.1555 49.6532 45.0458C50.0361 43.4576 49.7869 41.7827 48.9582 40.3748C48.1295 38.9668 46.7862 37.936 45.2118 37.5L45.0201 37.4562C44.0932 37.309 43.221 36.9217 42.4901 36.3329C41.7592 35.7441 41.1951 34.9743 40.8538 34.1C40.2188 32.5743 39.146 31.271 37.7707 30.3548C36.3955 29.4385 34.7796 28.9504 33.1272 28.9521ZM8.74968 39.1958C8.29292 39.1966 7.84856 39.0472 7.48501 38.7707C7.12145 38.4942 6.85886 38.1058 6.73763 37.6654C6.61641 37.225 6.64328 36.757 6.81411 36.3333C6.98495 35.9097 7.29027 35.5539 7.68308 35.3208L13.3265 31.9625C13.5416 31.8721 13.7201 31.7121 13.8334 31.5081C13.9468 31.3041 13.9883 31.0679 13.9514 30.8375C13.7695 30.2355 13.6303 29.6215 13.5348 29H6.08319C5.5307 29 5.00083 28.7805 4.61015 28.3898C4.21948 27.9991 4 27.4692 4 26.9167C4 26.3641 4.21948 25.8342 4.61015 25.4435C5.00083 25.0528 5.5307 24.8333 6.08319 24.8333H13.5306C13.6843 23.8329 13.9548 22.854 14.3368 21.9167L7.92473 18.1667C7.67922 18.0335 7.463 17.8523 7.28892 17.6339C7.11483 17.4154 6.98645 17.1642 6.9114 16.8952C6.83635 16.6261 6.81616 16.3447 6.85205 16.0677C6.88793 15.7907 6.97914 15.5238 7.12026 15.2827C7.26138 15.0417 7.44953 14.8315 7.67352 14.6646C7.89751 14.4978 8.15276 14.3777 8.4241 14.3114C8.69544 14.2452 8.97732 14.2342 9.25299 14.2792C9.52866 14.3241 9.79248 14.424 10.0288 14.5729L16.4867 18.3521C17.0809 17.6394 17.7445 16.9876 18.4678 16.4062L14.6451 9.94583C14.5056 9.71041 14.4138 9.44981 14.375 9.17892C14.3362 8.90802 14.3511 8.63213 14.4189 8.367C14.5558 7.83154 14.8998 7.37242 15.3753 7.09062C15.8507 6.80883 16.4186 6.72746 16.954 6.8644C17.4894 7.00134 17.9485 7.34538 18.2303 7.82083L22.0696 14.2979C22.9611 13.9489 23.887 13.6954 24.8319 13.5417V6.08333C24.8319 5.5308 25.0514 5.0009 25.4421 4.61019C25.8328 4.21949 26.3626 4 26.9151 4C27.4676 4 27.9975 4.21949 28.3882 4.61019C28.7788 5.0009 28.9983 5.5308 28.9983 6.08333V13.5354C29.9875 13.6896 30.9552 13.9596 31.8814 14.3396L35.6791 7.85C35.8174 7.61376 36.0009 7.40707 36.219 7.24173C36.4372 7.0764 36.6858 6.95565 36.9506 6.8864C37.2154 6.81714 37.4913 6.80073 37.7625 6.83809C38.0336 6.87546 38.2948 6.96587 38.531 7.10417C38.7672 7.24247 38.9739 7.42594 39.1392 7.64412C39.3045 7.86229 39.4253 8.1109 39.4945 8.37574C39.5638 8.64058 39.5802 8.91647 39.5428 9.18765C39.5055 9.45884 39.4151 9.72001 39.2768 9.95625L35.4375 16.5104C36.327 17.0813 36.9311 18.5938 38.0831 18.0042L43.5807 14.3583C43.8084 14.1933 44.0673 14.076 44.3416 14.0137C44.6159 13.9514 44.9 13.9453 45.1767 13.9957C45.4535 14.0462 45.7171 14.1522 45.9518 14.3073C46.1865 14.4624 46.3873 14.6635 46.5422 14.8983C46.697 15.1332 46.8027 15.3969 46.8529 15.6738C46.9031 15.9506 46.8966 16.2347 46.834 16.5089C46.7714 16.7832 46.6539 17.0419 46.4886 17.2696C46.3233 17.4972 46.1136 17.689 45.8722 17.8333L40.2809 21.5417C39.2496 22.1678 38.0335 22.4182 36.8388 22.2504C35.644 22.0825 34.544 21.5069 33.7251 20.6208C32.8434 19.6833 31.7855 18.9287 30.612 18.4004C29.4385 17.872 28.1723 17.5802 26.886 17.5417C24.4284 17.6482 22.1014 18.6774 20.3692 20.424C18.6371 22.1706 17.627 24.5061 17.5408 26.9646C17.5326 27.8668 17.6668 28.7647 17.9386 29.625C18.2647 30.7624 18.1876 31.9777 17.7202 33.0647C17.2528 34.1518 16.424 35.0438 15.3742 35.5896L9.81419 38.9021C9.49224 39.094 9.12448 39.1955 8.74968 39.1958Z" fill="#B3005E"/>
</svg>
