<svg width="100" height="89" viewBox="0 0 100 89" fill="none" xmlns="http://www.w3.org/2000/svg">
<g clip-path="url(#clip0_202_9707)">
<path d="M97.9397 22.9972C96.7869 19.2073 93.4093 16.2199 89.1262 15.1993C81.3008 13.3047 49.999 13.3047 49.999 13.3047C49.999 13.3047 18.698 13.3047 10.8726 15.1271C6.67188 16.147 3.21196 19.2079 2.05917 22.9972C0 29.9197 0 44.2762 0 44.2762C0 44.2762 0 58.705 2.05917 65.5552C3.21272 69.3445 6.58948 72.3325 10.8734 73.3531C18.7804 75.2477 49.9998 75.2477 49.9998 75.2477C49.9998 75.2477 81.3008 75.2477 89.1262 73.4253C93.4101 72.4054 96.7869 69.4174 97.9404 65.6281C99.9996 58.705 99.9996 44.3491 99.9996 44.3491C99.9996 44.3491 100.082 29.9197 97.9397 22.9972Z" fill="#FF0000"/>
<path d="M40.0332 57.5399L66.0623 44.2768L40.0332 31.0137V57.5399Z" fill="white"/>
</g>
<defs>
<clipPath id="clip0_202_9707">
<rect width="100" height="88.4696" fill="white"/>
</clipPath>
</defs>
</svg>
