<svg width="20" height="20" viewBox="0 0 20 20" fill="none" xmlns="http://www.w3.org/2000/svg">
<path d="M10.8393 5.33928C11.0606 5.34705 11.281 5.36239 11.5 5.38516V6V9H14.5H15.1148C15.1376 9.21904 15.153 9.43939 15.1607 9.66072C15.1647 9.77357 15.1667 9.88668 15.1667 10C15.1667 10.1133 15.1647 10.2264 15.1607 10.3393C15.153 10.5606 15.1376 10.781 15.1148 11H14.5H11.5V14V14.6148C11.281 14.6376 11.0606 14.653 10.8393 14.6607C10.7264 14.6647 10.6133 14.6667 10.5 14.6667C10.3867 14.6667 10.2736 14.6647 10.1607 14.6607C9.93939 14.653 9.71904 14.6376 9.5 14.6148V14V11H6.5H5.88516C5.86239 10.781 5.84705 10.5606 5.83928 10.3393C5.83532 10.2264 5.83333 10.1133 5.83333 10C5.83333 9.88669 5.83532 9.77358 5.83928 9.66072C5.84705 9.43939 5.86239 9.21904 5.88516 9H6.5H9.5V6V5.38516C9.71904 5.36239 9.93939 5.34705 10.1607 5.33928C10.2736 5.33532 10.3867 5.33333 10.5 5.33333C10.6133 5.33333 10.7264 5.33532 10.8393 5.33928Z" fill="white" stroke="white" stroke-width="21.3333"/>
</svg>
