<svg width="130" height="48" viewBox="0 0 130 48" fill="none" xmlns="http://www.w3.org/2000/svg">
<path d="M1.98438 29.29C1.98438 27.03 2.4295 24.792 3.2944 22.7041C4.15931 20.616 5.42698 18.7188 7.02509 17.1207C8.6232 15.5226 10.5204 14.2549 12.6084 13.39C14.6965 12.5252 16.9344 12.08 19.1945 12.08V29.29H1.98438Z" fill="white"/>
<path d="M1.98438 29.2899C1.98438 31.55 2.4295 33.7879 3.2944 35.876C4.15931 37.964 5.42698 39.8612 7.02509 41.4593C8.6232 43.0574 10.5204 44.3251 12.6084 45.19C14.6965 46.0549 16.9344 46.5 19.1945 46.5V29.2899H1.98438Z" fill="white"/>
<path d="M36.4041 29.2899C36.4041 31.55 35.9593 33.7879 35.0945 35.876C34.2296 37.964 32.962 39.8612 31.3636 41.4593C29.7655 43.0574 27.8683 44.3251 25.7802 45.19C23.6923 46.0549 21.4543 46.5 19.1943 46.5V29.2899H36.4041Z" fill="white"/>
<path d="M47.0154 14.422C47.0154 21.5586 41.2298 27.344 34.0933 27.344H21.1714V14.422C21.1714 7.2854 26.9568 1.5 34.0933 1.5C41.2298 1.5 47.0154 7.2854 47.0154 14.422Z" fill="white"/>
<path d="M65.072 18.768V20.96H62.096V30H59.36V20.96H56.384V18.768H65.072ZM72.1731 30L69.8371 25.76H69.1811V30H66.4451V18.768H71.0371C71.9225 18.768 72.6745 18.9227 73.2931 19.232C73.9225 19.5413 74.3918 19.968 74.7011 20.512C75.0105 21.0453 75.1651 21.6427 75.1651 22.304C75.1651 23.0507 74.9518 23.7173 74.5251 24.304C74.1091 24.8907 73.4905 25.3067 72.6691 25.552L75.2611 30H72.1731ZM69.1811 23.824H70.8771C71.3785 23.824 71.7518 23.7013 71.9971 23.456C72.2531 23.2107 72.3811 22.864 72.3811 22.416C72.3811 21.9893 72.2531 21.6533 71.9971 21.408C71.7518 21.1627 71.3785 21.04 70.8771 21.04H69.1811V23.824ZM79.6186 20.96V23.232H83.2826V25.344H79.6186V27.808H83.7626V30H76.8826V18.768H83.7626V20.96H79.6186ZM95.5869 30H92.8509L88.2749 23.072V30H85.5389V18.768H88.2749L92.8509 25.728V18.768H95.5869V30ZM101.778 18.768C102.962 18.768 103.997 19.0027 104.882 19.472C105.767 19.9413 106.45 20.6027 106.93 21.456C107.421 22.2987 107.666 23.2747 107.666 24.384C107.666 25.4827 107.421 26.4587 106.93 27.312C106.45 28.1653 105.762 28.8267 104.866 29.296C103.981 29.7653 102.951 30 101.778 30H97.5701V18.768H101.778ZM101.602 27.632C102.637 27.632 103.442 27.3493 104.018 26.784C104.594 26.2187 104.882 25.4187 104.882 24.384C104.882 23.3493 104.594 22.544 104.018 21.968C103.442 21.392 102.637 21.104 101.602 21.104H100.306V27.632H101.602ZM118.827 18.768L114.939 26.288V30H112.203V26.288L108.315 18.768H111.419L113.595 23.472L115.755 18.768H118.827ZM129.562 18.768L125.674 26.288V30H122.938V26.288L119.05 18.768H122.154L124.33 23.472L126.49 18.768H129.562Z" fill="white"/>
</svg>
