<svg width="169" height="42" viewBox="0 0 169 42" fill="none" xmlns="http://www.w3.org/2000/svg">
<path d="M65.072 21.768V23.96H62.096V33H59.36V23.96H56.384V21.768H65.072ZM72.1731 33L69.8371 28.76H69.1811V33H66.4451V21.768H71.0371C71.9225 21.768 72.6745 21.9227 73.2931 22.232C73.9225 22.5413 74.3918 22.968 74.7011 23.512C75.0105 24.0453 75.1651 24.6427 75.1651 25.304C75.1651 26.0507 74.9518 26.7173 74.5251 27.304C74.1091 27.8907 73.4905 28.3067 72.6691 28.552L75.2611 33H72.1731ZM69.1811 26.824H70.8771C71.3785 26.824 71.7518 26.7013 71.9971 26.456C72.2531 26.2107 72.3811 25.864 72.3811 25.416C72.3811 24.9893 72.2531 24.6533 71.9971 24.408C71.7518 24.1627 71.3785 24.04 70.8771 24.04H69.1811V26.824ZM79.6186 23.96V26.232H83.2826V28.344H79.6186V30.808H83.7626V33H76.8826V21.768H83.7626V23.96H79.6186ZM95.5869 33H92.8509L88.2749 26.072V33H85.5389V21.768H88.2749L92.8509 28.728V21.768H95.5869V33ZM101.778 21.768C102.962 21.768 103.997 22.0027 104.882 22.472C105.767 22.9413 106.45 23.6027 106.93 24.456C107.421 25.2987 107.666 26.2747 107.666 27.384C107.666 28.4827 107.421 29.4587 106.93 30.312C106.45 31.1653 105.762 31.8267 104.866 32.296C103.981 32.7653 102.951 33 101.778 33H97.5701V21.768H101.778ZM101.602 30.632C102.637 30.632 103.442 30.3493 104.018 29.784C104.594 29.2187 104.882 28.4187 104.882 27.384C104.882 26.3493 104.594 25.544 104.018 24.968C103.442 24.392 102.637 24.104 101.602 24.104H100.306V30.632H101.602ZM118.827 21.768L114.939 29.288V33H112.203V29.288L108.315 21.768H111.419L113.595 26.472L115.755 21.768H118.827ZM129.562 21.768L125.674 29.288V33H122.938V29.288L119.05 21.768H122.154L124.33 26.472L126.49 21.768H129.562Z" fill="white"/>
</svg>
