<svg width="49" height="48" viewBox="0 0 49 48" fill="none" xmlns="http://www.w3.org/2000/svg">
<g id="logoipsum-logo-13 1">
<path id="Vector" d="M1.98438 29.2898C1.98438 27.0298 2.4295 24.7918 3.2944 22.7039C4.15932 20.6158 5.42698 18.7186 7.02509 17.1205C8.62321 15.5224 10.5204 14.2547 12.6084 13.3898C14.6965 12.525 16.9344 12.0798 19.1945 12.0798V29.2898H1.98438Z" fill="white"/>
<path id="Vector_2" d="M1.98438 29.2898C1.98438 31.5499 2.4295 33.7878 3.2944 35.8759C4.15932 37.9639 5.42698 39.8611 7.02509 41.4592C8.62321 43.0573 10.5204 44.325 12.6084 45.1899C14.6965 46.0548 16.9344 46.4999 19.1945 46.4999V29.2898H1.98438Z" fill="white"/>
<path id="Vector_3" d="M36.4044 29.2898C36.4044 31.5499 35.9596 33.7878 35.0948 35.8759C34.2299 37.9639 32.9623 39.8611 31.3639 41.4592C29.7658 43.0573 27.8686 44.325 25.7805 45.1899C23.6926 46.0548 21.4546 46.4999 19.1946 46.4999V29.2898H36.4044Z" fill="white"/>
<path id="Vector_4" d="M47.0156 14.422C47.0156 21.5586 41.23 27.344 34.0935 27.344H21.1716V14.422C21.1716 7.2854 26.957 1.5 34.0935 1.5C41.23 1.5 47.0156 7.2854 47.0156 14.422Z" fill="white"/>
</g>
</svg>
