<svg id="_x3C_Layer_x3E_" enable-background="new 0 0 32 32" height="512" viewBox="0 0 32 32" width="512" xmlns="http://www.w3.org/2000/svg"><g id="decentralized_autonomous_organization_x2C__DAO_x2C__team_x2C__group_x2C__tick_x2C__network"><g id="XMLID_2802_"><g id="XMLID_4494_"><g id="XMLID_4507_"><g id="XMLID_5749_"><path d="m26 18.5c-.28 0-.5-.22-.5-.5v-1c0-.28.22-.5.5-.5s.5.22.5.5v1c0 .28-.22.5-.5.5z" fill="rgb(0,0,0)"/></g></g><g id="XMLID_4495_"><g id="XMLID_5748_"><path d="m26 15.5c-.28 0-.5-.22-.5-.5v-1c0-.28.22-.5.5-.5s.5.22.5.5v1c0 .28-.22.5-.5.5z" fill="rgb(0,0,0)"/></g></g><g id="XMLID_4497_"><g id="XMLID_5747_"><path d="m6 18.5c-.28 0-.5-.22-.5-.5v-1c0-.28.22-.5.5-.5s.5.22.5.5v1c0 .28-.22.5-.5.5z" fill="rgb(0,0,0)"/></g></g><g id="XMLID_4496_"><g id="XMLID_5746_"><path d="m6 15.5c-.28 0-.5-.22-.5-.5v-1c0-.28.22-.5.5-.5s.5.22.5.5v1c0 .28-.22.5-.5.5z" fill="rgb(0,0,0)"/></g></g><g id="XMLID_4506_"><g id="XMLID_5745_"><path d="m20.5 27h-.5c-.28 0-.5-.22-.5-.5s.22-.5.5-.5h.5c.28 0 .5.22.5.5s-.22.5-.5.5z" fill="rgb(0,0,0)"/></g></g><g id="XMLID_4505_"><g id="XMLID_5744_"><path d="m18 27h-1c-.28 0-.5-.22-.5-.5s.22-.5.5-.5h1c.28 0 .5.22.5.5s-.22.5-.5.5z" fill="rgb(0,0,0)"/></g></g><g id="XMLID_4504_"><g id="XMLID_5743_"><path d="m15 27h-1c-.28 0-.5-.22-.5-.5s.22-.5.5-.5h1c.28 0 .5.22.5.5s-.22.5-.5.5z" fill="rgb(0,0,0)"/></g></g><g id="XMLID_4503_"><g id="XMLID_5742_"><path d="m12 27h-.5c-.28 0-.5-.22-.5-.5s.22-.5.5-.5h.5c.28 0 .5.22.5.5s-.22.5-.5.5z" fill="rgb(0,0,0)"/></g></g><g id="XMLID_4502_"><g id="XMLID_5741_"><path d="m20.5 8h-.5c-.28 0-.5-.22-.5-.5s.22-.5.5-.5h.5c.28 0 .5.22.5.5s-.22.5-.5.5z" fill="rgb(0,0,0)"/></g></g><g id="XMLID_4499_"><g id="XMLID_5740_"><path d="m18 8h-1c-.28 0-.5-.22-.5-.5s.22-.5.5-.5h1c.28 0 .5.22.5.5s-.22.5-.5.5z" fill="rgb(0,0,0)"/></g></g><g id="XMLID_4498_"><g id="XMLID_5739_"><path d="m15 8h-1c-.28 0-.5-.22-.5-.5s.22-.5.5-.5h1c.28 0 .5.22.5.5s-.22.5-.5.5z" fill="rgb(0,0,0)"/></g></g><g id="XMLID_4464_"><g id="XMLID_5738_"><path d="m12 8h-.5c-.28 0-.5-.22-.5-.5s.22-.5.5-.5h.5c.28 0 .5.22.5.5s-.22.5-.5.5z" fill="rgb(0,0,0)"/></g></g></g><g id="XMLID_2772_"><g id="XMLID_5735_"><path d="m6 25c-1.38 0-2.5-1.12-2.5-2.5s1.12-2.5 2.5-2.5 2.5 1.12 2.5 2.5-1.12 2.5-2.5 2.5zm0-4c-.83 0-1.5.67-1.5 1.5s.67 1.5 1.5 1.5 1.5-.67 1.5-1.5-.67-1.5-1.5-1.5z" fill="rgb(0,0,0)"/></g></g><g id="XMLID_2771_"><g id="XMLID_5734_"><path d="m6 31c-.98 0-1.87-.08-2.63-.23-.27-.05-.45-.32-.39-.59.05-.27.31-.45.59-.39.69.14 1.51.21 2.43.21 2.46 0 3.6-.51 3.99-.75-.13-1.26-1.19-2.25-2.49-2.25h-3c-1.38 0-2.5 1.12-2.5 2.5 0 .28-.22.5-.5.5s-.5-.22-.5-.5c0-1.93 1.57-3.5 3.5-3.5h3c1.93 0 3.5 1.57 3.5 3.5 0 .13-.05.26-.15.35-.11.12-1.25 1.15-4.85 1.15z" fill="rgb(0,0,0)"/></g></g><g id="XMLID_2673_"><g id="XMLID_5731_"><path d="m26 25c-1.38 0-2.5-1.12-2.5-2.5s1.12-2.5 2.5-2.5 2.5 1.12 2.5 2.5-1.12 2.5-2.5 2.5zm0-4c-.83 0-1.5.67-1.5 1.5s.67 1.5 1.5 1.5 1.5-.67 1.5-1.5-.67-1.5-1.5-1.5z" fill="rgb(0,0,0)"/></g></g><g id="XMLID_2672_"><g id="XMLID_5730_"><path d="m26 31c-.98 0-1.87-.08-2.63-.23-.27-.05-.45-.32-.39-.59.05-.27.31-.45.59-.39.69.14 1.51.21 2.43.21 2.46 0 3.6-.51 3.99-.75-.13-1.26-1.19-2.25-2.49-2.25h-3c-1.38 0-2.5 1.12-2.5 2.5 0 .28-.22.5-.5.5s-.5-.22-.5-.5c0-1.93 1.57-3.5 3.5-3.5h3c1.93 0 3.5 1.57 3.5 3.5 0 .13-.05.26-.15.35-.11.12-1.25 1.15-4.85 1.15z" fill="rgb(0,0,0)"/></g></g><g id="XMLID_4263_"><g id="XMLID_5729_"><path d="m19.5 21h-7c-.28 0-.5-.22-.5-.5v-7c0-.28.22-.5.5-.5h4.5c.28 0 .5.22.5.5s-.22.5-.5.5h-4v6h6v-3c0-.28.22-.5.5-.5s.5.22.5.5v3.5c0 .28-.22.5-.5.5z" fill="rgb(0,0,0)"/></g></g><g id="XMLID_4229_"><g id="XMLID_5728_"><path d="m16 18c-.13 0-.26-.05-.35-.15l-1.2-1.2c-.2-.2-.2-.51 0-.71s.51-.2.71 0l.84.85 3.23-3.23c.2-.2.51-.2.71 0s.2.51 0 .71l-3.58 3.58c-.1.1-.23.15-.36.15z" fill="rgb(0,0,0)"/></g></g><g id="XMLID_2952_"><g id="XMLID_5725_"><path d="m6 25c-1.38 0-2.5-1.12-2.5-2.5s1.12-2.5 2.5-2.5 2.5 1.12 2.5 2.5-1.12 2.5-2.5 2.5zm0-4c-.83 0-1.5.67-1.5 1.5s.67 1.5 1.5 1.5 1.5-.67 1.5-1.5-.67-1.5-1.5-1.5z" fill="rgb(0,0,0)"/></g></g><g id="XMLID_2940_"><g id="XMLID_5724_"><path d="m6 31c-.98 0-1.87-.08-2.63-.23-.27-.05-.45-.32-.39-.59.05-.27.31-.45.59-.39.69.14 1.51.21 2.43.21 2.46 0 3.6-.51 3.99-.75-.13-1.26-1.19-2.25-2.49-2.25h-3c-1.38 0-2.5 1.12-2.5 2.5 0 .28-.22.5-.5.5s-.5-.22-.5-.5c0-1.93 1.57-3.5 3.5-3.5h3c1.93 0 3.5 1.57 3.5 3.5 0 .13-.05.26-.15.35-.11.12-1.25 1.15-4.85 1.15z" fill="rgb(0,0,0)"/></g></g><g id="XMLID_2880_"><g id="XMLID_5721_"><path d="m26 25c-1.38 0-2.5-1.12-2.5-2.5s1.12-2.5 2.5-2.5 2.5 1.12 2.5 2.5-1.12 2.5-2.5 2.5zm0-4c-.83 0-1.5.67-1.5 1.5s.67 1.5 1.5 1.5 1.5-.67 1.5-1.5-.67-1.5-1.5-1.5z" fill="rgb(0,0,0)"/></g></g><g id="XMLID_2878_"><g id="XMLID_5720_"><path d="m26 31c-.98 0-1.87-.08-2.63-.23-.27-.05-.45-.32-.39-.59.05-.27.31-.45.59-.39.69.14 1.51.21 2.43.21 2.46 0 3.6-.51 3.99-.75-.13-1.26-1.19-2.25-2.49-2.25h-3c-1.38 0-2.5 1.12-2.5 2.5 0 .28-.22.5-.5.5s-.5-.22-.5-.5c0-1.93 1.57-3.5 3.5-3.5h3c1.93 0 3.5 1.57 3.5 3.5 0 .13-.05.26-.15.35-.11.12-1.25 1.15-4.85 1.15z" fill="rgb(0,0,0)"/></g></g><g id="XMLID_4397_"><g id="XMLID_5717_"><path d="m6 6c-1.38 0-2.5-1.12-2.5-2.5s1.12-2.5 2.5-2.5 2.5 1.12 2.5 2.5-1.12 2.5-2.5 2.5zm0-4c-.83 0-1.5.67-1.5 1.5s.67 1.5 1.5 1.5 1.5-.67 1.5-1.5-.67-1.5-1.5-1.5z" fill="rgb(0,0,0)"/></g></g><g id="XMLID_4327_"><g id="XMLID_5716_"><path d="m6 12c-.98 0-1.87-.08-2.63-.23-.27-.05-.45-.32-.39-.59.05-.27.31-.45.59-.39.69.14 1.51.21 2.43.21 2.46 0 3.6-.51 3.99-.75-.13-1.26-1.19-2.25-2.49-2.25h-3c-1.38 0-2.5 1.12-2.5 2.5 0 .28-.22.5-.5.5s-.5-.22-.5-.5c0-1.93 1.57-3.5 3.5-3.5h3c1.93 0 3.5 1.57 3.5 3.5 0 .13-.05.26-.15.35-.11.12-1.25 1.15-4.85 1.15z" fill="rgb(0,0,0)"/></g></g><g id="XMLID_4310_"><g id="XMLID_5713_"><path d="m26 6c-1.38 0-2.5-1.12-2.5-2.5s1.12-2.5 2.5-2.5 2.5 1.12 2.5 2.5-1.12 2.5-2.5 2.5zm0-4c-.83 0-1.5.67-1.5 1.5s.67 1.5 1.5 1.5 1.5-.67 1.5-1.5-.67-1.5-1.5-1.5z" fill="rgb(0,0,0)"/></g></g><g id="XMLID_4309_"><g id="XMLID_5712_"><path d="m26 12c-.98 0-1.87-.08-2.63-.23-.27-.05-.45-.32-.39-.59.05-.27.31-.45.59-.39.69.14 1.51.21 2.43.21 2.46 0 3.6-.51 3.99-.75-.13-1.26-1.19-2.25-2.49-2.25h-3c-1.38 0-2.5 1.12-2.5 2.5 0 .28-.22.5-.5.5s-.5-.22-.5-.5c0-1.93 1.57-3.5 3.5-3.5h3c1.93 0 3.5 1.57 3.5 3.5 0 .13-.05.26-.15.35-.11.12-1.25 1.15-4.85 1.15z" fill="rgb(0,0,0)"/></g></g></g></g></svg>