<svg width="100" height="101" viewBox="0 0 100 101" fill="none" xmlns="http://www.w3.org/2000/svg">
<path d="M6.24978 50.4056C6.34453 50.4054 6.43917 50.3992 6.53311 50.3869C21.8371 48.3103 36.7633 44.0452 50.8539 37.7223C65.0836 31.3201 78.3044 22.8786 90.0998 12.6639L87.5623 22.8181C87.4286 23.3538 87.5131 23.9206 87.7971 24.394C88.0811 24.8674 88.5414 25.2088 89.0769 25.3431C89.2425 25.3841 89.4125 25.4051 89.5831 25.4056C90.0475 25.405 90.4983 25.2493 90.8641 24.9632C91.2298 24.6771 91.4895 24.277 91.6019 23.8264L95.7685 7.15977C95.8451 6.85289 95.8507 6.53261 95.7851 6.22322C95.7195 5.91383 95.5842 5.62345 95.3897 5.37408C95.1951 5.12472 94.9464 4.92293 94.6622 4.784C94.3781 4.64508 94.0661 4.57267 93.7498 4.57227H77.0831C76.5306 4.57227 76.0007 4.79176 75.61 5.18246C75.2193 5.57316 74.9998 6.10306 74.9998 6.6556C74.9998 7.20813 75.2193 7.73804 75.61 8.12874C76.0007 8.51944 76.5306 8.73893 77.0831 8.73893H88.2685C76.5537 19.0339 63.3673 27.5219 49.1456 33.9223C35.4186 40.0816 20.8776 44.2359 5.96853 46.2577C5.44474 46.3284 4.96742 46.5956 4.63326 47.0051C4.2991 47.4147 4.13308 47.9359 4.16884 48.4632C4.20459 48.9905 4.43945 49.4846 4.82583 49.8452C5.21221 50.2059 5.72123 50.4062 6.24978 50.4056Z" fill="#060047"/>
<path d="M93.7494 92.0726H91.666V35.8226C91.666 35.2701 91.4465 34.7402 91.0558 34.3495C90.6651 33.9587 90.1352 33.7393 89.5827 33.7393H68.7494C68.1968 33.7393 67.6669 33.9587 67.2762 34.3495C66.8855 34.7402 66.666 35.2701 66.666 35.8226V92.0726H62.4994V48.3226C62.4994 47.7701 62.2799 47.2402 61.8892 46.8495C61.4985 46.4587 60.9686 46.2393 60.416 46.2393H39.5827C39.0302 46.2393 38.5002 46.4587 38.1095 46.8495C37.7188 47.2402 37.4994 47.7701 37.4994 48.3226V92.0726H33.3327V60.8226C33.3327 60.2701 33.1132 59.7402 32.7225 59.3494C32.3318 58.9587 31.8019 58.7393 31.2494 58.7393H10.416C9.86348 58.7393 9.33358 58.9587 8.94288 59.3494C8.55218 59.7402 8.33268 60.2701 8.33268 60.8226V92.0726H6.24935C5.69681 92.0726 5.16691 92.2921 4.77621 92.6828C4.38551 93.0735 4.16602 93.6034 4.16602 94.1559C4.16602 94.7085 4.38551 95.2384 4.77621 95.6291C5.16691 96.0198 5.69681 96.2393 6.24935 96.2393H93.7494C94.3019 96.2393 94.8318 96.0198 95.2225 95.6291C95.6132 95.2384 95.8327 94.7085 95.8327 94.1559C95.8327 93.6034 95.6132 93.0735 95.2225 92.6828C94.8318 92.2921 94.3019 92.0726 93.7494 92.0726ZM70.8327 37.9059H87.4994V92.0726H70.8327V37.9059ZM41.666 50.4059H58.3327V92.0726H41.666V50.4059ZM12.4993 62.9059H29.166V92.0726H12.4993V62.9059Z" fill="#060047"/>
</svg>
