<svg width="32" height="32" viewBox="0 0 32 32" fill="none" xmlns="http://www.w3.org/2000/svg">
<path d="M5.40072 3.80273C3.47603 3.80273 1.89697 5.37993 1.89697 7.30462C1.89697 9.22931 3.47603 10.8084 5.40072 10.8084C7.32541 10.8084 8.9026 9.22931 8.9026 7.30462C8.9026 5.37993 7.32541 3.80273 5.40072 3.80273ZM5.40072 5.42822C6.4472 5.42822 7.27713 6.25815 7.27713 7.30462C7.27713 8.3511 6.4472 9.18288 5.40072 9.18288C4.35424 9.18288 3.52245 8.3511 3.52245 7.30462C3.52245 6.25815 4.35424 5.42822 5.40072 5.42822Z" fill="white"/>
<path d="M29.1592 25.1729C24.0907 28.8933 16.9659 27.8006 13.2454 22.7321C9.52496 17.6637 10.6177 10.5389 15.6861 6.8184C19.6724 3.89227 25.0918 3.87414 29.0976 6.77352" stroke="white" stroke-width="2" stroke-linejoin="round"/>
</svg>
